<?xml version="1.0" encoding="UTF-8"?>
<svg width="767px" height="694px" viewBox="0 0 767 694" version="1.1" xmlns="http://www.w3.org/2000/svg" xmlns:xlink="http://www.w3.org/1999/xlink">
    <!-- Generator: Sketch 52.5 (67469) - http://www.bohemiancoding.com/sketch -->
    <title>Group 10</title>
    <desc>Created with Sketch.</desc>
    <defs>
        <linearGradient x1="50%" y1="0%" x2="56.9087223%" y2="117.522801%" id="linearGradient-1">
            <stop stop-color="#51679D" offset="0%"></stop>
            <stop stop-color="#BCCFE3" offset="84.0862809%"></stop>
            <stop stop-color="#D6E9F4" offset="100%"></stop>
        </linearGradient>
        <linearGradient x1="50%" y1="0%" x2="50%" y2="100%" id="linearGradient-2">
            <stop stop-color="#617FE0" offset="0%"></stop>
            <stop stop-color="#95AFFF" offset="100%"></stop>
        </linearGradient>
        <linearGradient x1="100%" y1="18.1028139%" x2="50%" y2="100%" id="linearGradient-3">
            <stop stop-color="#4368DF" offset="0%"></stop>
            <stop stop-color="#95AFFF" offset="100%"></stop>
        </linearGradient>
        <linearGradient x1="27.5483196%" y1="19.7507749%" x2="50%" y2="151.70001%" id="linearGradient-4">
            <stop stop-color="#617FE0" offset="0%"></stop>
            <stop stop-color="#95AFFF" offset="100%"></stop>
        </linearGradient>
        <linearGradient x1="33.5537911%" y1="0%" x2="50%" y2="100%" id="linearGradient-5">
            <stop stop-color="#FFDE9C" offset="0%"></stop>
            <stop stop-color="#FFAB52" offset="100%"></stop>
        </linearGradient>
        <linearGradient x1="70.5245602%" y1="110.811174%" x2="38.1694951%" y2="3.02799209%" id="linearGradient-6">
            <stop stop-color="#EE9D8A" offset="0%"></stop>
            <stop stop-color="#F6647F" offset="100%"></stop>
        </linearGradient>
    </defs>
    <g id="Page-1" stroke="none" stroke-width="1" fill="none" fill-rule="evenodd">
        <g id="Group-10" transform="translate(-104.000000, -147.000000)">
            <path d="M267.244895,795.733807 C447.878257,861.45023 830.906617,604.968858 813.778987,442.411294 C796.651356,279.853729 682.931675,349.775891 415.870525,164.53751 C148.809375,-20.7008714 21.8837651,243.523132 150.670258,391.345272 C279.456751,539.167412 86.611533,730.017384 267.244895,795.733807 Z" id="Oval-30" fill="#D5E5FF" transform="translate(457.167434, 453.639176) scale(-1, 1) rotate(-20.000000) translate(-457.167434, -453.639176) "></path>
            <circle id="Oval" fill="#51679D" opacity="0.100000001" cx="367.5" cy="153.5" r="6.5"></circle>
            <circle id="Oval" fill="#51679D" opacity="0.100000001" cx="238" cy="316" r="8"></circle>
            <g id="Group-2" transform="translate(263.734348, 425.500120) rotate(10.000000) translate(-263.734348, -425.500120) translate(136.234348, 200.500120)">
                <g id="Group-3">
                    <path d="M38.3471359,1.31818692e-14 L229.318307,-3.55271368e-15 C242.717232,-6.0140563e-15 253.587747,10.845801 253.618244,24.2446914 L254.531451,425.46408 C254.561997,438.884564 243.707307,449.788779 230.286823,449.819325 C230.268386,449.819367 230.24995,449.819388 230.231514,449.819388 L39.124647,449.819388 C25.7225137,449.819388 14.8506642,438.968587 14.8246926,425.566479 L14.0471815,24.3470902 C14.0211743,10.9265959 24.8795515,0.0260528039 38.3000457,4.56272663e-05 C38.3157424,1.52090959e-05 38.3314391,3.55559712e-15 38.3471359,3.55271368e-15 Z" id="Mask" fill="#D5E5FF"></path>
                    <path d="M24.8545433,1.31818692e-14 L215.825714,-3.55271368e-15 C229.224639,-6.0140563e-15 240.095154,10.845801 240.125651,24.2446914 L241.038858,425.46408 C241.069404,438.884564 230.214715,449.788779 216.79423,449.819325 C216.775794,449.819367 216.757358,449.819388 216.738921,449.819388 L25.6320544,449.819388 C12.2299212,449.819388 1.35807158,438.968587 1.33210003,425.566479 L0.554588909,24.3470902 C0.528581733,10.9265959 11.3869589,0.0260528039 24.8074531,4.56272663e-05 C24.8231498,1.52090959e-05 24.8388466,3.55559712e-15 24.8545433,3.55271368e-15 Z" id="Mask" fill="url(#linearGradient-1)"></path>
                    <path d="M65.0628391,23.4205264 L176.397123,23.4205264 C179.554799,23.4205264 182.307885,21.2729705 183.076484,18.2102632 L183.076484,18.2102632 C183.845084,15.1475559 186.59817,13 189.755846,13 L207.38723,13 C218.459936,13 227.436137,21.9420714 227.436137,32.9726755 L228.459962,417.815329 C228.459962,428.845933 219.48376,437.788004 208.411055,437.788004 L33.9205987,437.788004 C22.8478931,437.788004 13.8716916,428.845933 13.8716916,417.815329 L13,32.9726755 C13,21.9420714 21.9762015,13 33.0489071,13 L51.7041156,13 C54.8617921,13 57.614878,15.1475559 58.3834773,18.2102632 L58.3834773,18.2102632 C59.1520766,21.2729705 61.9051625,23.4205264 65.0628391,23.4205264 Z" id="Mask" fill="#FFFFFF" opacity="0.600000024"></path>
                    <rect id="Rectangle" fill="#8398BD" x="76" y="426" width="89" height="4" rx="2"></rect>
                    <g id="Group-5" transform="translate(33.000000, 108.000000)">
                        <path d="M6,0 L169,0 C172.313708,-6.08718376e-16 175,2.6862915 175,6 L175,216 C175,219.313708 172.313708,222 169,222 L6,222 C2.6862915,222 4.05812251e-16,219.313708 0,216 L0,6 C-4.05812251e-16,2.6862915 2.6862915,6.08718376e-16 6,0 Z" id="Rectangle" fill="#FFFFFF"></path>
                        <g transform="translate(41.000000, 64.000000)" stroke-width="16">
                            <circle id="Oval" stroke="#D5E5FF" opacity="0.5" cx="47" cy="47" r="47"></circle>
                            <path d="M6.82121026e-13,47 C6.82121026e-13,72.9573832 21.0426168,94 47,94 C72.9573832,94 94,72.9573832 94,47 C94,21.0426168 72.9573832,0 47,0" id="Path" stroke="#3884FF" stroke-linecap="round"></path>
                        </g>
                        <path d="M14.0618567,13.3308429 L38.9748159,13.3308429" id="Path-5" stroke="#556B9F" stroke-width="4" opacity="0.400000006" stroke-linecap="round"></path>
                        <path d="M14.0618567,23.3308429 L28.9748159,23.3308429" id="Path-5" stroke="#556B9F" stroke-width="4" opacity="0.400000006" stroke-linecap="round"></path>
                    </g>
                </g>
            </g>
            <g id="Group-4" transform="translate(571.100520, 524.278232) scale(-1, 1) translate(-571.100520, -524.278232) translate(364.100520, 341.778232)">
                <g id="Group-18" transform="translate(0.000000, 0.020512)">
                    <g id="Group-21" transform="translate(0.528000, -0.000000)">
                        <g id="Group-23" transform="translate(0.000000, 0.589565)">
                            <g id="Group-7" transform="translate(0.000000, -0.000000)">
                                <g id="Group-2" transform="translate(119.200000, -0.000000)">
                                    <ellipse id="Oval" fill="url(#linearGradient-2)" cx="16.2" cy="67.8" rx="16.2" ry="67.8"></ellipse>
                                    <ellipse id="Oval" fill="url(#linearGradient-3)" cx="16.7" cy="80.8" rx="8.7" ry="52.8"></ellipse>
                                </g>
                                <g id="Group-2" transform="translate(269.200000, 20.000000)">
                                    <ellipse id="Oval" fill="url(#linearGradient-2)" cx="16.2" cy="67.8" rx="16.2" ry="67.8"></ellipse>
                                    <ellipse id="Oval" fill="url(#linearGradient-3)" cx="16.7" cy="80.8" rx="8.7" ry="52.8"></ellipse>
                                </g>
                                <path d="M329.792289,63.3560262 C313.772244,147.880084 315.790698,193.808284 335.847651,201.140626 C355.904604,208.472968 368.558538,174.649782 373.809453,99.6710685 L329.792289,63.3560262 Z" id="Path-2" fill="url(#linearGradient-4)" transform="translate(346.465577, 132.738205) rotate(-140.000000) translate(-346.465577, -132.738205) "></path>
                                <path d="M44.4789927,210.50823 C39.8971032,280.359488 45.5866641,317.747247 61.5476752,322.671507 C77.5086863,327.595767 92.8615011,276.037155 107.60612,167.995671 L44.4789927,210.50823 Z" id="Path-2" fill="url(#linearGradient-4)" transform="translate(75.276097, 245.494578) scale(-1, 1) rotate(-40.000000) translate(-75.276097, -245.494578) "></path>
                                <path d="M231.966202,337.535053 C224.783469,337.893317 217.383356,338.042274 209.824,338.042274 C200.222645,338.042274 190.878184,337.801972 181.909744,337.197713 C180.898267,346.494175 178.673942,353.989367 175.919314,356.38078 C169.575108,361.888462 140.331479,364.389923 137.724206,359.187102 C135.116934,353.984281 140.331479,353.651727 137.724206,351.253599 C131.648875,345.665607 126.767222,335.337992 122.905927,323.577175 C100.600047,312.088815 86.8,292.101971 86.8,258.121137 C86.8,190.233668 105.879721,73.2 209.824,73.2 C313.768279,73.2 332.848,190.233668 332.848,258.121137 C332.848,295.475695 316.1717,315.919587 289.851936,326.753029 C286.172111,337.180239 281.636318,346.174642 276.114415,351.253599 C273.507143,353.651727 278.721688,353.984281 276.114415,359.187102 C273.507143,364.389923 244.263513,361.888462 237.919307,356.38078 C235.198078,354.018361 232.99437,346.675173 231.966202,337.535053 Z" id="Combined-Shape" fill="url(#linearGradient-2)"></path>
                                <g id="Group" transform="translate(201.403922, 247.090647) scale(-1, 1) rotate(-10.000000) translate(-201.403922, -247.090647) translate(124.903922, 220.590647)">
                                    <path d="M5.54513801,3.64934058 C22.4707493,10.0383608 44.8983838,13.2328709 72.8280414,13.2328709 C100.814863,13.2328709 125.065574,10.0576709 145.580174,3.70727096 L145.59339,3.74996375 C146.624982,3.43062922 147.720124,4.00802778 148.039458,5.03961952 C148.241242,5.69147014 148.088606,6.40136329 147.636729,6.91266851 C121.565987,36.4120791 92.961668,51.4027953 61.8237711,51.884817 C30.8072651,52.3649595 10.7373304,37.5113284 1.61396685,7.32392366 L1.61398153,7.32391922 C1.13465512,5.73792297 2.03178828,4.06364814 3.61778454,3.58432172 C4.24988275,3.39328636 4.92735128,3.41614062 5.54513801,3.64934058 Z" id="Path-7" fill="#331523"></path>
                                    <path d="M123.115658,20.3950175 C125.774511,16.0418073 128.079976,12.6786276 130.032054,10.3054783 C131.984132,7.93232897 134.831053,5.03173175 138.572817,1.60368662 C141.383172,20.2874668 141.172223,30.4303382 137.939971,32.032301 C134.707719,33.6342638 129.766281,29.7551692 123.115658,20.3950175 Z" id="Path-8" fill="url(#linearGradient-5)" transform="translate(131.824538, 16.993572) rotate(190.000000) translate(-131.824538, -16.993572) "></path>
                                    <path d="M6.27229436,30.281929 C7.76424588,25.0405599 9.15186179,21.084828 10.4351421,18.414733 C11.7184224,15.7446381 13.6971708,12.6960452 16.3713872,9.26895428 C18.5733654,27.4715455 18.5733654,37.1185112 16.3713872,38.2098515 C14.1694091,39.3011919 10.8030448,36.658551 6.27229436,30.281929 Z" id="Path-8" fill="url(#linearGradient-5)" transform="translate(12.147583, 23.859016) scale(-1, 1) rotate(190.000000) translate(-12.147583, -23.859016) "></path>
                                    <path d="M26.4077924,43.5378437 C39.8652463,31.640155 57.4180982,25.8303697 79.066348,26.1084878 C100.714598,26.3866058 115.1946,28.0097183 122.506355,30.9778251 C103.82699,43.6603823 85.8777842,50.7729925 68.6587387,52.3156557 C51.4396933,53.8583189 37.3560446,50.9323816 26.4077924,43.5378437 Z" id="Path-3" fill="url(#linearGradient-6)"></path>
                                </g>
                            </g>
                        </g>
                    </g>
                    <g id="Group-8" transform="translate(169.200000, 100.400000)">
                        <g id="Group-13" transform="translate(0.000000, 0.452208)">
                            <circle id="Oval" fill="#FFFFFF" opacity="0.100000001" cx="39" cy="82" r="39"></circle>
                            <circle id="Oval" fill="#FFFFFF" opacity="0.100000001" cx="39" cy="26" r="26"></circle>
                            <circle id="Oval" fill="#FFFFFF" cx="39.4" cy="82.4" r="29.4"></circle>
                            <circle id="Oval" fill="#331523" cx="54.2598427" cy="69.8507166" r="10.08"></circle>
                        </g>
                        <g id="Group-13" transform="translate(20.800000, 8.000000)">
                            <circle id="Oval" fill="#FFFFFF" cx="18.522" cy="18.522" r="18.522"></circle>
                            <circle id="Oval" fill="#331523" cx="27.1462848" cy="9.75794408" r="6.3504"></circle>
                        </g>
                    </g>
                </g>
            </g>
        </g>
    </g>
</svg>