<?xml version="1.0" encoding="UTF-8"?>
<svg width="940px" height="772px" viewBox="0 0 940 772" version="1.1" xmlns="http://www.w3.org/2000/svg" xmlns:xlink="http://www.w3.org/1999/xlink">
    <!-- Generator: Sketch 52.5 (67469) - http://www.bohemiancoding.com/sketch -->
    <title>colors</title>
    <desc>Created with Sketch.</desc>
    <defs>
        <linearGradient x1="58.7817197%" y1="-23.0719377%" x2="-6.13933452%" y2="65.2079551%" id="linearGradient-1">
            <stop stop-color="#89F5E5" offset="0%"></stop>
            <stop stop-color="#11C0BE" offset="100%"></stop>
        </linearGradient>
        <linearGradient x1="94.1879382%" y1="91.8154115%" x2="11.9019522%" y2="70.497941%" id="linearGradient-2">
            <stop stop-color="#EE9D8A" offset="0%"></stop>
            <stop stop-color="#FB7990" offset="100%"></stop>
        </linearGradient>
        <linearGradient x1="132.820236%" y1="25.8569379%" x2="88.9694705%" y2="115.428445%" id="linearGradient-3">
            <stop stop-color="#3EEFD5" offset="0%"></stop>
            <stop stop-color="#0CBABB" offset="100%"></stop>
        </linearGradient>
        <linearGradient x1="-47.0073033%" y1="-43.103591%" x2="-233.21483%" y2="250.91136%" id="linearGradient-4">
            <stop stop-color="#4C5F96" offset="0%"></stop>
            <stop stop-color="#A5F7FF" offset="100%"></stop>
        </linearGradient>
        <circle id="path-5" cx="29.904" cy="29.824" r="29.0006"></circle>
        <linearGradient x1="212.889508%" y1="-1.46205116%" x2="182.960716%" y2="197.760181%" id="linearGradient-7">
            <stop stop-color="#FFEBB4" offset="0%"></stop>
            <stop stop-color="#FFB476" offset="100%"></stop>
        </linearGradient>
        <linearGradient x1="136.464882%" y1="38.005965%" x2="79.8673569%" y2="-143.492903%" id="linearGradient-8">
            <stop stop-color="#4C5F96" offset="0%"></stop>
            <stop stop-color="#A5F7FF" offset="100%"></stop>
        </linearGradient>
        <linearGradient x1="122.054859%" y1="109.242809%" x2="113.656643%" y2="3.34059694%" id="linearGradient-9">
            <stop stop-color="#FFEBB4" offset="0%"></stop>
            <stop stop-color="#FFC585" offset="50.9695%"></stop>
            <stop stop-color="#FFAA64" offset="100%"></stop>
        </linearGradient>
        <linearGradient x1="124.416857%" y1="94.6334131%" x2="92.0626526%" y2="-13.1496489%" id="linearGradient-10">
            <stop stop-color="#EE9D8A" offset="0%"></stop>
            <stop stop-color="#F6647F" offset="100%"></stop>
        </linearGradient>
        <linearGradient x1="-1.08715534%" y1="63.6709586%" x2="100%" y2="269.856615%" id="linearGradient-11">
            <stop stop-color="#3884FF" offset="0%"></stop>
            <stop stop-color="#DEEAFF" stop-opacity="0.5" offset="100%"></stop>
        </linearGradient>
        <linearGradient x1="-77.9872913%" y1="-78.0648317%" x2="-46.822039%" y2="115.583223%" id="linearGradient-12">
            <stop stop-color="#3EEFD5" offset="0%"></stop>
            <stop stop-color="#08B2B3" offset="100%"></stop>
        </linearGradient>
        <linearGradient x1="-43.7063925%" y1="87.5300099%" x2="3.84954598%" y2="1214.33413%" id="linearGradient-13">
            <stop stop-color="#4C5F96" offset="0%"></stop>
            <stop stop-color="#A5F7FF" offset="100%"></stop>
        </linearGradient>
        <linearGradient x1="44.5566532%" y1="133.08409%" x2="104.057551%" y2="51.1338944%" id="linearGradient-14">
            <stop stop-color="#B3CFD9" offset="0%"></stop>
            <stop stop-color="#7CA1B1" offset="100%"></stop>
        </linearGradient>
        <linearGradient x1="20.3294272%" y1="38.096212%" x2="94.4196381%" y2="12.1994122%" id="linearGradient-15">
            <stop stop-color="#3EEFD5" offset="0%"></stop>
            <stop stop-color="#29D9CB" offset="100%"></stop>
        </linearGradient>
    </defs>
    <g id="Page-1" stroke="none" stroke-width="1" fill="none" fill-rule="evenodd">
        <g id="colors">
            <path d="M492.864,0.524575 C624.873,-8.39474 698.531,98.5246 719.864,161.525 C749.864,233.525 757.133,307.581 788,354.524 C836,427.524 927.864,445.525 938.864,566.525 C947.565,662.234 844.864,733.525 659.864,761.525 C474.864,789.525 180.456,760.248 62.864,681.525 C-38,614 4.8644,488.525 47.8644,434.525 C90.864,380.525 204.864,295.524 241.864,235.524 C278.864,175.524 344.864,10.5243 492.864,0.524575 Z" id="Path" fill="#DEEAFF"></path>
            <path d="M578.589,354.796 C578.589,354.796 575.638,340.207 578.316,340.679 C580.995,341.151 592.102,346.445 592.102,346.445 C592.102,346.445 595.85,331.614 599.576,332.271 C603.302,332.928 607.714,349.198 607.714,349.198 L578.589,354.796 Z" id="Path" fill="#FFFFFF"></path>
            <path d="M615.043,357.596 C631.921,403.923 610.658,469.576 557.966,488.754 C505.275,507.933 467.578,486.302 450.703,439.986 C446.345,428.025 449.957,393.121 461.903,388.769 C473.664,384.484 486.657,390.397 491.214,401.997 L491.421,402.545 C499.607,425.013 524.252,436.621 546.415,428.562 C568.346,420.588 575.96,386.145 575.588,371.288 C575.215,356.43 573.579,348.172 585.524,343.82 C597.469,339.468 610.685,345.636 615.043,357.596 Z" id="Path" fill="url(#linearGradient-1)"></path>
            <path d="M381.635,323.048 C381.635,323.048 433.191,314.25 433.191,296.596 C433.191,278.941 394.525,286.548 394.525,286.548 C394.525,286.548 440.399,225.03 394.525,223.051 C348.651,221.071 301.191,296.596 301.191,296.596 C301.191,296.596 307.269,264.772 290.65,264.772 C274.031,264.772 258.623,350.875 258.623,350.875 L381.635,323.048 Z" id="Path" fill="url(#linearGradient-2)"></path>
            <path d="M329.895,628.831 C333.422,629.057 336.981,629.173 340.566,629.173 C352.222,629.173 363.594,627.956 374.562,625.643 C376.382,642.257 380.364,655.641 385.292,659.919 C396.67,669.797 453.794,664.952 453.794,664.952 C456.34,663.545 455.211,661.092 453.996,658.452 C452.761,655.768 451.437,652.892 453.794,650.724 C487.314,619.892 500.573,508.611 502.621,489.536 C503.777,481.691 504.375,473.666 504.375,465.5 C504.375,375.107 431.035,301.828 340.566,301.828 C250.096,301.828 176.757,375.107 176.757,465.5 C176.757,478.99 178.39,492.098 181.47,504.639 C185.892,531.673 193.695,577.31 198.66,594.597 C204.111,613.576 217.661,643.8 224.045,657.622 C226.141,662.158 230.555,665.132 235.547,665.349 C256.666,666.27 312.561,667.901 321.755,659.919 C322.786,659.024 321.476,658.032 319.731,656.711 C315.945,653.844 310.115,649.429 321.755,641.106 C325.587,638.366 328.237,634.105 329.895,628.831 Z" id="Path" fill="url(#linearGradient-3)"></path>
            <path d="M441.121,370.416 C440.991,376.337 442.864,368.331 450.989,369.149 C459.687,369.34 460.662,376.769 460.792,370.848 C460.922,364.926 456.624,360.029 451.192,359.91 C445.76,359.791 441.251,364.494 441.121,370.416 Z" id="Path" fill="#331523"></path>
            <circle id="Oval" fill="url(#linearGradient-4)" transform="translate(414.904000, 373.824000) scale(-1, 1) translate(-414.904000, -373.824000) " cx="414.904" cy="373.824" r="29.0006"></circle>
            <g id="Clipped" transform="translate(385.000000, 344.000000)">
                <mask id="mask-6" fill="white">
                    <use xlink:href="#path-5"></use>
                </mask>
                <g id="Oval" transform="translate(29.904000, 29.824000) scale(-1, 1) translate(-29.904000, -29.824000) "></g>
                <g id="Group" mask="url(#mask-6)" fill="#4C5F96">
                    <g transform="translate(0.000000, 37.000000)" id="Path">
                        <path d="M58.904,0.498 C58.904,0.498 51.844,-2.031 48.181,4.438 C44.519,10.908 45.346,23.582 45.346,23.582 L58.904,8.353 L58.904,0.498 Z"></path>
                        <path d="M8.132,2.712 C8.132,2.712 12.854,-2.111 18.414,2.373 C23.974,6.857 28.438,21.901 28.438,21.901 L0.684,10.508 L8.132,2.712 Z"></path>
                    </g>
                </g>
            </g>
            <path d="M346.991,369.151 C346.861,375.072 348.733,367.066 356.859,367.884 C365.557,368.075 366.532,375.504 366.662,369.582 C366.792,363.661 362.494,358.764 357.062,358.645 C351.63,358.525 347.121,363.229 346.991,369.151 Z" id="Path" fill="#331523"></path>
            <path d="M415.249,620.479 C415.249,620.479 389.255,629.531 363.552,628.836 C337.849,628.14 318.913,621.21 318.913,621.21 L415.249,620.479 Z" id="Path" fill="#1F5967" opacity="0.3"></path>
            <path d="M398.945,471.366 C432.766,473.196 448.502,419.068 448.502,419.068 C448.502,419.068 415.319,429.644 379.959,422.831 C344.599,416.017 312.588,393.596 312.588,393.596 C312.588,393.596 365.125,469.535 398.945,471.366 Z" id="Path" fill="#331523"></path>
            <path d="M389.463,471.425 C406.858,474.493 420.654,469.374 427.58,459.792 C431.599,454.231 409.108,442.371 386.376,439.686 C363.644,437.002 351.486,441.853 353.213,444.172 C365.389,460.518 376.463,469.133 389.463,471.425 Z" id="Path" fill="url(#linearGradient-7)"></path>
            <path d="M312.588,393.596 C312.588,393.596 315.352,434.107 324.456,437.977 C333.561,441.847 344.72,411.808 344.72,411.808 C344.72,411.808 340.918,410.076 330.981,404.737 C321.044,399.398 312.588,393.596 312.588,393.596 Z" id="Path" fill="#FFFFFF"></path>
            <path d="M448.502,419.068 C448.502,419.068 440.249,448.767 432.783,447.937 C425.317,447.108 417.613,425.106 417.613,425.106 C417.613,425.106 423.277,424.878 431.682,423.235 C440.088,421.592 448.502,419.068 448.502,419.068 Z" id="Path" fill="#FFFFFF"></path>
            <path d="M737.955,433.846 C743.337,437.959 749.957,440.116 756.727,440.19 C770.798,440.334 782.642,431.416 787.104,419.157 C788.768,414.587 789.403,409.55 788.753,404.347 C783.247,360.337 749.006,318.487 698.147,299.976 C629.827,275.11 557.399,301.774 536.376,359.533 C515.354,417.291 553.698,484.274 622.017,509.14 C658.75,522.51 696.671,520.979 727.15,507.729 C741.222,501.61 743.902,482.791 732.139,472.933 C730.179,471.286 727.953,469.959 725.557,469.087 C724.591,468.736 723.594,468.455 722.578,468.261 C716.355,467.078 710.811,462.868 708.221,456.476 C704.51,447.307 708.441,436.641 717.21,432.064 C724.161,428.442 732.196,429.443 737.955,433.846 Z M664.805,426.297 C667.547,418.763 675.878,414.878 683.412,417.62 C690.946,420.362 694.826,428.691 692.084,436.225 C689.342,443.759 681.018,447.641 673.484,444.899 C665.95,442.157 662.063,433.831 664.805,426.297 Z" id="Shape" fill="url(#linearGradient-8)"></path>
            <circle id="Oval" fill="url(#linearGradient-9)" transform="translate(595.839000, 344.064000) rotate(20.000000) translate(-595.839000, -344.064000) " cx="595.839" cy="344.064" r="25.1482"></circle>
            <circle id="Oval" fill="url(#linearGradient-10)" transform="translate(724.056000, 358.616000) rotate(20.000000) translate(-724.056000, -358.616000) " cx="724.056" cy="358.616" r="25.1482"></circle>
            <circle id="Oval" fill="url(#linearGradient-11)" transform="translate(662.703000, 330.742000) rotate(20.000000) translate(-662.703000, -330.742000) " cx="662.703" cy="330.742" r="25.1482"></circle>
            <circle id="Oval" fill="url(#linearGradient-12)" transform="translate(570.569000, 406.032000) rotate(20.000000) translate(-570.569000, -406.032000) " cx="570.569" cy="406.032" r="25.1482"></circle>
            <path d="M112.245,559.233 C112.224,562.408 114.711,565.034 117.882,565.184 L231.498,570.642 L231.568,560.021 L231.639,549.399 L117.96,553.357 C114.787,553.466 112.266,556.059 112.245,559.233 Z" id="Path" fill="url(#linearGradient-13)"></path>
            <polygon id="Path" fill="#FFFFFF" points="270.431 570.913 231.51 570.656 231.65 549.416 270.571 549.673"></polygon>
            <path d="M290.063,538.189 C288.051,537.88 286.089,537.739 284.309,537.82 C274.11,538.286 264.999,543.78 262.082,553.944 C258.642,565.933 265.572,578.44 277.565,581.882 C284.131,583.767 290.818,583.211 296.771,579.791 C300.067,577.898 302.701,575.141 305.416,572.529 C308.185,569.865 310.671,567.861 314.395,566.773 C317.332,565.915 321.759,567.015 323.565,563.822 C326.669,558.33 317.869,552.037 314.123,549.203 C310.509,546.469 306.688,543.973 302.596,542.013 C299.073,540.326 294.447,538.861 290.063,538.189 Z" id="Path" fill="url(#linearGradient-14)"></path>
            <path d="M165.431,578.261 C165.431,578.261 163.214,592.98 160.858,591.62 C158.503,590.26 149.877,581.487 149.877,581.487 C149.877,581.487 141.281,594.141 138.005,592.249 C134.729,590.358 136.147,573.56 136.147,573.56 L165.431,578.261 Z" id="Path" fill="#FFFFFF"></path>
            <path d="M226.59,480.484 C226.59,480.484 186.687,593.374 145.369,583.876 C104.051,574.379 192.709,393.564 192.709,393.564 C192.709,393.564 219.863,392.933 229.09,419.191 C238.317,445.45 226.59,480.484 226.59,480.484 Z" id="Path" fill="url(#linearGradient-15)"></path>
        </g>
    </g>
</svg>