<svg width="758" height="659" viewBox="0 0 758 659" fill="none" xmlns="http://www.w3.org/2000/svg">
<path fill-rule="evenodd" clip-rule="evenodd" d="M352.702 0.21802C544.918 0.245025 817.125 372.262 745.433 519.158C673.74 666.054 590.793 561.455 276.482 644.181C-37.8282 726.908 -66.7293 435.208 104.849 340.348C276.426 245.488 160.486 0.191014 352.702 0.21802Z" fill="#D6E3FE"/>
<path fill-rule="evenodd" clip-rule="evenodd" d="M662.011 149.54L473.941 116.378C460.745 114.052 448.156 122.845 445.8 136.035L375.229 531C372.869 544.212 381.665 556.835 394.876 559.195C394.895 559.199 394.913 559.202 394.93 559.205L583.134 592.39C596.332 594.717 608.923 585.92 611.276 572.725L681.714 177.737C684.069 164.525 675.268 151.904 662.057 149.548C662.041 149.545 662.025 149.543 662.011 149.54Z" fill="url(#paint0_linear)"/>
<path fill-rule="evenodd" clip-rule="evenodd" d="M618.361 165.134L508.717 145.801C505.608 145.253 503.27 142.66 503.044 139.51C502.819 136.36 500.48 133.768 497.371 133.22L480.007 130.158C469.103 128.235 458.71 135.483 456.795 146.345L388.959 525.164C387.044 536.027 394.331 546.392 405.235 548.315L577.075 578.615C587.98 580.537 598.372 573.29 600.288 562.427L667.973 183.581C669.888 172.719 662.602 162.354 651.698 160.432L633.325 157.192C630.216 156.644 627.132 158.28 625.843 161.163C624.554 164.046 621.47 165.682 618.361 165.134Z" fill="white"/>
<path fill-rule="evenodd" clip-rule="evenodd" d="M468.779 440.129C468.791 478.325 435.876 520.483 392.382 520.483C348.888 520.483 327.15 494.749 327.137 456.562C327.134 446.701 339.027 422.249 348.888 422.246C358.597 422.243 366.499 429.99 366.743 439.642L366.749 440.095C366.755 458.62 381.639 473.599 399.931 473.605C418.032 473.611 432.719 450.556 436.389 439.642C440.059 428.728 441.057 422.282 450.918 422.279C460.779 422.276 468.776 430.268 468.779 440.129Z" fill="url(#paint1_linear)"/>
<path fill-rule="evenodd" clip-rule="evenodd" d="M214.498 575.268C218.44 575.602 222.429 575.772 226.458 575.772C236.409 575.772 246.117 574.733 255.48 572.759C257.034 586.942 260.433 598.368 264.639 602.02C274.353 610.452 299.845 619.181 323.118 606.316C343.339 595.139 360.074 488.541 364.116 460.771C365.55 452.746 366.299 444.484 366.299 436.048C366.299 358.88 303.69 296.324 226.458 296.324C149.226 296.324 86.6165 358.88 86.6165 436.048C86.6165 447.565 88.0112 458.757 90.6411 469.464C94.4168 492.543 101.077 531.498 105.315 546.255C109.812 561.912 120.765 586.532 126.415 598.819C128.577 603.52 132.996 606.745 138.141 607.293C156.107 609.209 198.023 612.421 207.747 602.019C211.724 597.765 213.909 587.649 214.498 575.268Z" fill="url(#paint2_linear)"/>
<path d="M278.907 440.598C265.1 440.598 253.907 433.3 253.907 424.298C253.907 415.296 265.1 407.998 278.907 407.998C292.714 407.998 303.907 415.296 303.907 424.298C303.907 433.3 292.714 440.598 278.907 440.598Z" fill="#331523"/>
<mask id="mask0" mask-type="alpha" maskUnits="userSpaceOnUse" x="253" y="407" width="51" height="34">
<path d="M278.907 440.598C292.714 440.598 303.907 433.3 303.907 424.298C303.907 415.296 292.714 407.998 278.907 407.998C265.1 407.998 253.907 415.296 253.907 424.298C253.907 433.3 265.1 440.598 278.907 440.598Z" fill="white"/>
</mask>
<g mask="url(#mask0)">
<path fill-rule="evenodd" clip-rule="evenodd" d="M300.469 407.998C300.469 407.998 297.498 415.928 294.1 417.724C290.702 419.52 288.77 410.894 288.77 410.894C288.77 410.894 286.576 413.207 284.373 412.895C282.169 412.583 281.45 410.181 281.45 410.181C281.45 410.181 279.143 414.719 277.127 414.785C275.112 414.852 273.031 410.871 273.031 410.871C273.031 410.871 268.875 418.156 266.057 419.168C263.24 420.18 257.28 407.998 257.28 407.998H300.469Z" fill="white"/>
</g>
<path fill-rule="evenodd" clip-rule="evenodd" d="M300.714 431.975C297.696 428.873 289.135 426.636 279.046 426.636C268.956 426.636 260.396 428.873 257.378 431.975C260.396 437.293 268.956 441.128 279.046 441.128C289.135 441.128 297.696 437.293 300.714 431.975Z" fill="url(#paint3_linear)"/>
<path opacity="0.2" d="M167.545 410.372C166.296 420.547 161.914 428.381 157.758 427.871C153.602 427.36 151.245 418.699 152.495 408.524C153.744 398.349 158.126 390.515 162.282 391.025C166.438 391.536 168.795 400.197 167.545 410.372Z" fill="url(#paint4_linear)"/>
<path opacity="0.2" d="M179.217 441.927C178.473 447.99 175.691 452.636 173.003 452.306C170.316 451.976 168.741 446.795 169.485 440.733C170.229 434.67 173.011 430.024 175.699 430.354C178.386 430.683 179.961 435.865 179.217 441.927Z" fill="url(#paint5_linear)"/>
<path opacity="0.2" d="M228.517 330.43C197.549 330.43 172.445 322.957 172.445 313.738C172.445 304.519 197.549 297.046 228.517 297.046C259.485 297.046 284.589 304.519 284.589 313.738C284.589 322.957 259.485 330.43 228.517 330.43Z" fill="url(#paint6_linear)"/>
<path d="M293.282 570.095C293.282 570.095 265.02 575.58 235.101 573.488C205.182 571.396 177.958 562.031 177.958 562.031" stroke="#FFAF6C" stroke-width="4" stroke-linecap="round"/>
<path d="M339.784 353.848H339.785C357.246 353.848 371.401 368.003 371.401 385.464V385.465C371.401 402.926 357.246 417.081 339.785 417.081H339.784C322.323 417.081 308.168 402.926 308.168 385.465V385.464C308.168 368.003 322.323 353.848 339.784 353.848Z" stroke="#DC5151" stroke-width="7"/>
<path d="M201.529 353.848H201.529C218.99 353.848 233.145 368.003 233.145 385.464V385.465C233.145 402.926 218.99 417.081 201.529 417.081H201.529C184.067 417.081 169.912 402.926 169.912 385.465V385.464C169.912 368.003 184.067 353.848 201.529 353.848Z" stroke="#DC5151" stroke-width="7"/>
<path d="M311.383 385.465H229.93" stroke="#DC5151" stroke-width="7"/>
<path d="M168.841 385.465H68.097" stroke="#DC5151" stroke-width="7"/>
<path d="M387.477 385.465H355.324" stroke="#DC5151" stroke-width="7"/>
<path d="M341.323 388.87C335.524 388.87 330.823 384.169 330.823 378.37C330.823 372.571 335.524 367.87 341.323 367.87C347.122 367.87 351.823 372.571 351.823 378.37C351.823 384.169 347.122 388.87 341.323 388.87Z" fill="#331523"/>
<path d="M216.28 388.998C210.481 388.998 205.78 384.297 205.78 378.498C205.78 372.699 210.481 367.998 216.28 367.998C222.079 367.998 226.78 372.699 226.78 378.498C226.78 384.297 222.079 388.998 216.28 388.998Z" fill="#331523"/>
<path fill-rule="evenodd" clip-rule="evenodd" d="M85.9664 444.604C85.9664 444.604 44.5618 302.42 81.5031 286.914C118.444 271.408 150.415 432.32 150.415 432.32" fill="url(#paint7_linear)"/>
<path d="M631.712 226.386L427.824 369.15" stroke="#D6E3FE" stroke-width="2" stroke-dasharray="5 5"/>
<path d="M625 232L601.458 385.64" stroke="#D6E3FE" stroke-width="2"/>
<path d="M496 242L429.026 378.426" stroke="#D6E3FE" stroke-width="2"/>
<path d="M428.354 370.477C506.944 238.621 595.279 399.91 625.146 230.523" stroke="#3884FF" stroke-width="5"/>
<path fill-rule="evenodd" clip-rule="evenodd" d="M429.428 379.427C434.398 379.427 438.428 375.398 438.427 370.427C438.427 365.457 434.398 361.428 429.427 361.428C424.457 361.428 420.428 365.457 420.428 370.428C420.428 375.398 424.457 379.428 429.428 379.427Z" fill="#3884FF"/>
<path fill-rule="evenodd" clip-rule="evenodd" d="M625.428 240.427C630.398 240.427 634.428 236.398 634.427 231.427C634.427 226.457 630.398 222.428 625.427 222.428C620.457 222.428 616.428 226.457 616.428 231.428C616.428 236.398 620.457 240.428 625.428 240.427Z" fill="#3884FF"/>
<path fill-rule="evenodd" clip-rule="evenodd" d="M601.428 388.427C606.398 388.427 610.428 384.398 610.427 379.427C610.427 374.457 606.398 370.428 601.427 370.428C596.457 370.428 592.428 374.457 592.428 379.428C592.428 384.398 596.457 388.428 601.428 388.427Z" fill="#FF6584"/>
<path fill-rule="evenodd" clip-rule="evenodd" d="M496.426 251.426C501.397 251.426 505.427 247.396 505.426 242.426C505.426 237.455 501.396 233.426 496.426 233.426C491.455 233.426 487.426 237.456 487.426 242.426C487.426 247.397 491.456 251.427 496.426 251.426Z" fill="#42DFD2"/>
<defs>
<linearGradient id="paint0_linear" x1="567.526" y1="132.88" x2="304.601" y2="569.733" gradientUnits="userSpaceOnUse">
<stop stop-color="#51679D"/>
<stop offset="0.840863" stop-color="#BCCFE3"/>
<stop offset="1" stop-color="#D6E9F4"/>
</linearGradient>
<linearGradient id="paint1_linear" x1="307.945" y1="559.401" x2="358.972" y2="462.881" gradientUnits="userSpaceOnUse">
<stop stop-color="#FFEBB4"/>
<stop offset="1" stop-color="#FFAF6C"/>
</linearGradient>
<linearGradient id="paint2_linear" x1="24.9319" y1="642.09" x2="63.2752" y2="308.443" gradientUnits="userSpaceOnUse">
<stop stop-color="#FFEBB4"/>
<stop offset="0.509695" stop-color="#FFC585"/>
<stop offset="1" stop-color="#FFAA64"/>
</linearGradient>
<linearGradient id="paint3_linear" x1="334.51" y1="415.323" x2="334.337" y2="444.038" gradientUnits="userSpaceOnUse">
<stop stop-color="#3EEFD5"/>
<stop offset="1" stop-color="#08B2B3"/>
</linearGradient>
<linearGradient id="paint4_linear" x1="160.02" y1="409.448" x2="175.071" y2="411.296" gradientUnits="userSpaceOnUse">
<stop stop-color="#F18E78"/>
<stop offset="1" stop-color="#DF5543"/>
</linearGradient>
<linearGradient id="paint5_linear" x1="174.351" y1="441.33" x2="184.083" y2="442.525" gradientUnits="userSpaceOnUse">
<stop stop-color="#F18E78"/>
<stop offset="1" stop-color="#DF5543"/>
</linearGradient>
<linearGradient id="paint6_linear" x1="228.517" y1="313.738" x2="228.517" y2="347.122" gradientUnits="userSpaceOnUse">
<stop stop-color="#F18E78"/>
<stop offset="1" stop-color="#DF5543"/>
</linearGradient>
<linearGradient id="paint7_linear" x1="111.78" y1="448.998" x2="34.114" y2="422.591" gradientUnits="userSpaceOnUse">
<stop stop-color="#FFC07F"/>
<stop offset="1" stop-color="#FFAF6C"/>
</linearGradient>
</defs>
</svg>
