<?xml version="1.0" encoding="UTF-8"?>
<svg width="758px" height="659px" viewBox="0 0 758 659" version="1.1" xmlns="http://www.w3.org/2000/svg" xmlns:xlink="http://www.w3.org/1999/xlink">
    <!-- Generator: Sketch 52.5 (67469) - http://www.bohemiancoding.com/sketch -->
    <title>Group 6</title>
    <desc>Created with Sketch.</desc>
    <defs>
        <linearGradient x1="50%" y1="0%" x2="56.9087223%" y2="117.522801%" id="linearGradient-1">
            <stop stop-color="#51679D" offset="0%"></stop>
            <stop stop-color="#BCCFE3" offset="84.0862809%"></stop>
            <stop stop-color="#D6E9F4" offset="100%"></stop>
        </linearGradient>
        <linearGradient x1="-38.1916673%" y1="2.84217094e-12%" x2="50%" y2="100%" id="linearGradient-2">
            <stop stop-color="#89F5E5" offset="0%"></stop>
            <stop stop-color="#11C0BE" offset="100%"></stop>
        </linearGradient>
        <linearGradient x1="0%" y1="50%" x2="83.6325805%" y2="38.3753324%" id="linearGradient-3">
            <stop stop-color="#EE9D8A" offset="0%"></stop>
            <stop stop-color="#FB7990" offset="100%"></stop>
        </linearGradient>
        <linearGradient x1="13.401017%" y1="7.55737974%" x2="50%" y2="100%" id="linearGradient-4">
            <stop stop-color="#3EEFD5" offset="0%"></stop>
            <stop stop-color="#0CBABB" offset="100%"></stop>
        </linearGradient>
        <linearGradient x1="31.0363429%" y1="100%" x2="72.8240948%" y2="-6.42454479%" id="linearGradient-5">
            <stop stop-color="#3EEFD5" offset="0%"></stop>
            <stop stop-color="#22D1C7" stop-opacity="0" offset="100%"></stop>
        </linearGradient>
        <linearGradient x1="50%" y1="0%" x2="-136.207475%" y2="294.014869%" id="linearGradient-6">
            <stop stop-color="#4C5F96" offset="0%"></stop>
            <stop stop-color="#A5F7FF" offset="100%"></stop>
        </linearGradient>
        <path d="M20.4919355,50.82 C34.6024292,50.82 50.82,39.4435555 50.82,25.41 C50.82,11.3764445 39.4435555,0 25.41,0 C11.3764445,0 0,11.3764445 0,25.41 C0,39.4435555 6.38144173,50.82 20.4919355,50.82 Z" id="path-7"></path>
    </defs>
    <g id="Page-1" stroke="none" stroke-width="1" fill="none" fill-rule="evenodd">
        <g id="Group-6" transform="translate(-43.000000, -67.000000)">
            <g id="Group-7" transform="translate(0.000000, 0.000000)" fill="#D6E3FE">
                <path d="M267.244895,795.733807 C447.878257,861.45023 830.906617,604.968858 813.778987,442.411294 C796.651356,279.853729 682.931675,349.775891 415.870525,164.53751 C148.809375,-20.7008714 21.8837651,243.523132 150.670258,391.345272 C279.456751,539.167412 86.611533,730.017384 267.244895,795.733807 Z" id="Oval-30" transform="translate(457.167434, 453.639176) scale(1, -1) rotate(-20.000000) translate(-457.167434, -453.639176) "></path>
            </g>
            <g id="Group-2" transform="translate(286.656192, 377.996954) rotate(-10.000000) translate(-286.656192, -377.996954) translate(165.656192, 152.996954)">
                <g id="Group-3">
                    <path d="M24.8545433,1.31818692e-14 L215.825714,-3.55271368e-15 C229.224639,-6.0140563e-15 240.095154,10.845801 240.125651,24.2446914 L241.038858,425.46408 C241.069404,438.884564 230.214715,449.788779 216.79423,449.819325 C216.775794,449.819367 216.757358,449.819388 216.738921,449.819388 L25.6320544,449.819388 C12.2299212,449.819388 1.35807158,438.968587 1.33210003,425.566479 L0.554588909,24.3470902 C0.528581733,10.9265959 11.3869589,0.0260528039 24.8074531,4.56272663e-05 C24.8231498,1.52090959e-05 24.8388466,3.55559712e-15 24.8545433,3.55271368e-15 Z" id="Mask" fill="url(#linearGradient-1)"></path>
                    <path d="M65.1337084,22.9362185 L176.467992,22.9362185 C179.625669,22.9362185 182.378755,20.7886626 183.147354,17.7259553 L183.147354,17.7259553 C183.915953,14.663248 186.669039,12.5156921 189.826716,12.5156921 L207.458099,12.5156921 C218.530805,12.5156921 227.507006,21.4577635 227.507006,32.4883676 L228.530831,417.331021 C228.530831,428.361625 219.55463,437.303696 208.481924,437.303696 L33.9914681,437.303696 C22.9187624,437.303696 13.9425609,428.361625 13.9425609,417.331021 L13.0708693,32.4883676 C13.0708693,21.4577635 22.0470708,12.5156921 33.1197765,12.5156921 L51.7749849,12.5156921 C54.9326614,12.5156921 57.6857474,14.663248 58.4543466,17.7259553 L58.4543466,17.7259553 C59.2229459,20.7886626 61.9760319,22.9362185 65.1337084,22.9362185 Z" id="Mask" fill="#FFFFFF"></path>
                    <rect id="Rectangle" fill="#3884FF" x="34" y="46" width="80" height="80" rx="4"></rect>
                    <rect id="Rectangle" fill="#3884FF" x="128" y="46" width="80" height="80" rx="4"></rect>
                    <rect id="Rectangle" fill="#3884FF" x="34" y="139" width="80" height="80" rx="4"></rect>
                    <rect id="Rectangle" fill="#3884FF" x="128" y="139" width="80" height="80" rx="4"></rect>
                    <rect id="Rectangle" fill="#3884FF" x="34" y="231" width="80" height="80" rx="4"></rect>
                    <rect id="Rectangle" fill="#3884FF" x="128" y="231" width="80" height="80" rx="4"></rect>
                    <rect id="Rectangle" fill="#D6E3FE" opacity="0.300000012" x="34" y="324" width="80" height="80" rx="4"></rect>
                    <rect id="Rectangle" fill="#D6E3FE" opacity="0.300000012" x="128" y="324" width="80" height="80" rx="4"></rect>
                    <circle id="Oval" fill="#FF6584" cx="37" cy="50" r="9"></circle>
                    <circle id="Oval" fill="#FF6584" cx="130" cy="50" r="9"></circle>
                    <circle id="Oval" fill="#FF6584" cx="37" cy="141" r="9"></circle>
                    <circle id="Oval" fill="#FF6584" cx="130" cy="141" r="9"></circle>
                    <circle id="Oval" fill="#FF6584" cx="37" cy="232" r="9"></circle>
                    <circle id="Oval" fill="#FF6584" cx="130" cy="232" r="9"></circle>
                </g>
            </g>
            <g id="Group-5" transform="translate(355.000000, 232.000000)">
                <g id="Group-45">
                    <g id="Group-44">
                        <g id="Group-4">
                            <path d="M53.1296343,175.05126 C92.33264,175.038588 128.676472,208.975999 128.676472,253.616594 C128.676472,298.257189 102.263907,320.568583 63.0701588,320.58126 C52.948989,320.584534 27.8525716,308.378359 27.8492979,298.257189 C27.8460746,288.29173 35.7977671,280.181527 45.703624,279.931216 L46.1693694,279.925263 C65.1823867,279.919113 80.556605,264.643008 80.5627392,245.868238 C80.5688054,227.290469 56.9055296,212.216548 45.703624,208.449577 C34.5017184,204.682606 17.6893366,179.329093 21.8169806,173.007712 C25.9446245,166.686331 35.5931802,180.881887 38.450668,179.329093 C43.314697,176.685921 48.8944908,175.052506 53.1296343,175.05126 Z" id="Path" fill="url(#linearGradient-2)" fill-rule="nonzero" transform="translate(74.927539, 245.978799) scale(1, -1) rotate(270.000000) translate(-74.927539, -245.978799) "></path>
                            <g id="Group-18" transform="translate(108.720000, 0.090597)">
                                <g id="Group-21" transform="translate(0.616000, 0.000000)">
                                    <g id="Group-23" transform="translate(0.000000, 0.267826)">
                                        <path d="M107.543633,87.8928667 C77.4281599,82.7536731 62.3704234,75.0278574 62.3704234,64.7154197 C62.3704234,54.4029819 73.66346,51.4685583 96.2495333,55.9121488 C69.4532222,19.977746 69.4532222,1.43238328 96.2495333,0.276060776 C123.045844,-0.880261732 150.305282,20.5995246 178.027846,64.7154197 C174.477616,46.1262778 177.556334,36.8317068 187.264,36.8317068 C196.971666,36.8317068 206.325385,61.9792186 215.325159,112.274242 L107.543633,87.8928667 Z" id="Path-5" fill="url(#linearGradient-3)"></path>
                                        <path d="M152.091331,352.858922 C141.542608,354.992321 130.914501,356.115987 120.428,356.115987 C118.047907,356.115987 115.702171,356.058102 113.390874,355.943665 C111.66911,369.133684 108.364708,379.561631 104.339856,383.05578 C94.3703896,391.71071 44.3189719,387.465715 44.3189719,387.465715 C39.8196013,384.978659 48.4161146,378.767269 44.3189719,374.998783 C21.4206038,353.937228 9.31323581,290.028891 4.2388109,254.966054 C1.4194502,241.607299 -2.80124368e-12,227.416227 -2.80124368e-12,212.707993 C-2.80124368e-12,133.505946 64.2596744,69.3 143.528,69.3 C222.796326,69.3 287.056,133.505946 287.056,212.707993 C287.056,218.883326 286.524921,224.967494 285.508007,230.937172 C283.508227,243.639281 273.557321,305.999128 267.864483,325.821466 C261.514063,347.933491 249.701317,372.075802 249.701317,372.075802 C245.788342,380.575416 235.037545,387.835584 225.700164,388.178956 C225.700164,388.178956 169.97897,391.71071 160.009503,383.05578 C157.14608,380.569917 174.90732,377.223514 160.009503,366.57194 C155.962165,363.678193 153.420118,358.847247 152.091331,352.858922 Z" id="Combined-Shape" fill="url(#linearGradient-4)"></path>
                                        <g id="Group-2" transform="translate(249.980000, 277.960000) rotate(3.000000) translate(-249.980000, -277.960000) translate(215.980000, 191.960000)">
                                            <path d="M9.66125004,148.721153 C6.48406243,156.814309 5.68976553,160.860887 7.27835933,160.860887 C8.86695314,160.860887 13.1243563,159.901596 20.0505689,157.983015 C20.7027878,166.894689 22.1337914,171.350527 24.3435797,171.350527 C26.553368,171.350527 29.7525544,166.894689 33.9411389,157.983015 L9.66125004,148.721153 Z" id="Path-6" fill="#FFFFFF"></path>
                                            <path d="M7.64012106,-1.8378734e-13 C-6.17932045,100.584172 -1.25132045,154.507822 22.4241211,161.770952 C46.0995626,169.034082 61.2522815,122.467888 67.8822778,22.0723688" id="Path-2" fill="url(#linearGradient-5)"></path>
                                        </g>
                                    </g>
                                </g>
                                <path d="M39.27,163.24 C43.9478518,163.24 47.74,167.147852 47.74,162.47 C47.74,157.792148 43.9478518,154 39.27,154 C34.5921482,154 30.8,157.792148 30.8,162.47 C30.8,167.147852 34.5921482,163.24 39.27,163.24 Z" id="Oval" fill="#331523"></path>
                                <path d="M142,173.126895 C147.522847,173.126895 152,177.88537 152,172.233541 C152,166.581712 147.522847,162 142,162 C136.477153,162 132,166.581712 132,172.233541 C132,177.88537 136.477153,173.126895 142,173.126895 Z" id="Oval" fill="#331523" transform="translate(142.000000, 168.500000) rotate(6.000000) translate(-142.000000, -168.500000) "></path>
                                <g id="Group" transform="translate(57.600000, 163.240000)">
                                    <mask id="mask-8" fill="white">
                                        <use xlink:href="#path-7"></use>
                                    </mask>
                                    <use id="Oval" fill="url(#linearGradient-6)" xlink:href="#path-7"></use>
                                    <path d="M1.21186616e-12,32.1338202 C4.12408063,30.6565247 7.25574007,31.8073896 9.39497831,35.5864149 C11.5342166,39.3654401 12.3623671,44.9566352 11.8794299,52.36 L1.21186616e-12,39.0163014 L1.21186616e-12,32.1338202 Z" id="Path-4" fill="#4C5F96" mask="url(#mask-8)"></path>
                                    <path d="M38.7100328,32.8460578 C42.3758983,31.3943408 45.1596077,32.5252792 47.0611611,36.238873 C48.9627145,39.9524668 49.3174895,46.3535424 48.1254861,55.4421 L29.9701609,36.4318122 L38.7100328,32.8460578 Z" id="Path-4" fill="#4C5F96" mask="url(#mask-8)" transform="translate(39.392299, 43.838074) scale(-1, 1) rotate(-24.000000) translate(-39.392299, -43.838074) "></path>
                                </g>
                                <path d="M78.7071409,348.766289 C78.7071409,348.766289 101.483415,356.698079 124.003997,356.088477 C146.524578,355.478874 163.115647,349.407206 163.115647,349.407206 L78.7071409,348.766289 Z" id="Path-53" fill="#1F5967" opacity="0.300000012"></path>
                                <path d="M100.992299,255.389355 C81.2368023,256.458682 66.763108,247.4263 57.5712161,228.29221 C76.9545731,234.469959 96.973543,235.568943 117.628126,231.58916 C138.282709,227.609377 157.959181,219.071052 176.657544,205.974183 C145.969544,237.848304 120.747795,254.320028 100.992299,255.389355 Z" id="Path-3" fill="#331523"></path>
                                <path d="M176.657544,205.974183 C175.043219,229.637431 171.576978,242.59937 166.258819,244.86 C160.94066,247.12063 155.022464,239.4776 148.50423,221.930908 C150.725059,220.919723 154.737607,218.854689 160.541871,215.735806 C166.346136,212.616923 171.718027,209.363049 176.657544,205.974183 Z" id="Path-7" fill="#FFFFFF"></path>
                                <path d="M80.9670786,224.158891 C80.8273332,239.59633 78.9386542,247.598278 75.3010418,248.164735 C71.6634294,248.731193 66.6275831,244.19197 60.1935029,234.547067 C62.8444534,233.702359 66.0541977,232.337738 69.8227356,230.453203 C73.5912735,228.568668 77.3060545,226.470564 80.9670786,224.158891 Z" id="Path-7" fill="#FFFFFF" transform="translate(70.580291, 236.185380) scale(-1, 1) rotate(15.000000) translate(-70.580291, -236.185380) "></path>
                                <path d="M80.0869401,290.67246 C81.2583311,296.331039 82.7960177,302.380154 84.7,308.819803 C88.839091,322.819038 96.1456353,337.277031 106.619633,352.193783" id="Path" stroke="#15A1A4" stroke-width="3.08" opacity="0.5" stroke-linecap="round"></path>
                            </g>
                        </g>
                    </g>
                </g>
            </g>
        </g>
    </g>
</svg>