<?xml version="1.0" encoding="UTF-8"?>
<svg width="526px" height="521px" viewBox="0 0 526 521" version="1.1" xmlns="http://www.w3.org/2000/svg" xmlns:xlink="http://www.w3.org/1999/xlink">
    <!-- Generator: Sketch 52.5 (67469) - http://www.bohemiancoding.com/sketch -->
    <title>Group 6</title>
    <desc>Created with Sketch.</desc>
    <defs>
        <linearGradient x1="10.9254822%" y1="4.51439767%" x2="50%" y2="100%" id="linearGradient-1">
            <stop stop-color="#89F5E5" offset="0%"></stop>
            <stop stop-color="#11C0BE" offset="100%"></stop>
        </linearGradient>
        <linearGradient x1="0%" y1="50%" x2="83.6325805%" y2="38.3753324%" id="linearGradient-2">
            <stop stop-color="#EE9D8A" offset="0%"></stop>
            <stop stop-color="#FB7990" offset="100%"></stop>
        </linearGradient>
        <linearGradient x1="13.401017%" y1="7.55737974%" x2="50%" y2="100%" id="linearGradient-3">
            <stop stop-color="#3EEFD5" offset="0%"></stop>
            <stop stop-color="#0CBABB" offset="100%"></stop>
        </linearGradient>
        <linearGradient x1="32.8739378%" y1="46.3422718%" x2="50%" y2="5.74113748%" id="linearGradient-4">
            <stop stop-color="#3EEFD5" offset="0%"></stop>
            <stop stop-color="#1FCEC5" offset="100%"></stop>
        </linearGradient>
        <linearGradient x1="50%" y1="0%" x2="-136.207475%" y2="294.014869%" id="linearGradient-5">
            <stop stop-color="#4C5F96" offset="0%"></stop>
            <stop stop-color="#A5F7FF" offset="100%"></stop>
        </linearGradient>
        <path d="M14.3712536,35.6407088 C24.2671213,35.6407088 35.6407088,27.6622644 35.6407088,17.8203544 C35.6407088,7.97844444 27.6622644,0 17.8203544,0 C7.97844444,0 0,7.97844444 0,17.8203544 C0,27.6622644 4.47538581,35.6407088 14.3712536,35.6407088 Z" id="path-6"></path>
    </defs>
    <g id="Page-1" stroke="none" stroke-width="1" fill="none" fill-rule="evenodd">
        <g id="Group-6" transform="translate(-1.000000, -17.000000)">
            <path d="M173.395972,530.005678 C300.076434,576.093437 568.699068,396.219807 556.687244,282.216131 C544.67542,168.212454 464.922369,217.249751 277.629007,87.339731 C90.3356443,-42.5702889 1.32110832,142.733347 91.6407049,246.402884 C181.960302,350.07242 46.7155107,483.91792 173.395972,530.005678 Z" id="Oval-30" fill="#D5E5FF" transform="translate(306.591051, 290.090386) rotate(80.000000) translate(-306.591051, -290.090386) "></path>
            <g id="Group-5" transform="translate(201.276730, 138.158592)">
                <g id="Group-45">
                    <g id="Group-44">
                        <g id="Group-4">
                            <path d="M28.6012336,125.272961 C56.0947973,125.264074 86.4405174,148.956806 86.4405174,180.26382 C86.4405174,211.570834 67.917052,227.218097 40.4299804,227.226987 C33.331876,227.229283 15.7314411,218.668938 15.7291452,211.570834 C15.7268846,204.581931 21.3035071,198.894144 28.2506099,198.718597 L28.577243,198.714422 C41.9113126,198.710109 52.6934463,187.996784 52.6977483,174.8298 C52.7020026,161.800975 36.106648,151.229444 28.2506099,148.587619 C20.3945718,145.945795 15.7554277,145.227475 15.7531332,138.129371 C15.7508387,131.031266 21.5031292,125.275256 28.6012336,125.272961 Z" id="Path" fill="url(#linearGradient-1)" fill-rule="nonzero" transform="translate(51.084748, 176.249705) scale(1, -1) rotate(270.000000) translate(-51.084748, -176.249705) "></path>
                            <g id="Group-18" transform="translate(73.441461, 0.063537)">
                                <g id="Group-21" transform="translate(0.432009, 0.000000)">
                                    <g id="Group-23" transform="translate(0.000000, 0.187830)">
                                        <path d="M74.0190848,61.6403792 C52.8987226,58.0361977 42.3385416,52.6179855 42.3385416,45.3857424 C42.3385416,38.1534994 50.258491,36.095551 66.0983899,39.2118972 C47.3057979,14.010646 47.3057979,1.00454852 66.0983899,0.193604914 C84.8909818,-0.617338688 104.00837,14.4467071 123.450555,45.3857424 C120.960734,32.3489421 123.119878,25.8305419 129.927987,25.8305419 C136.736095,25.8305419 143.295977,43.46681 149.607632,78.7393463 L74.0190848,61.6403792 Z" id="Path-5" fill="url(#linearGradient-2)"></path>
                                        <path d="M106.663575,248.86705 C99.2656215,250.36323 91.8119954,251.151271 84.4576797,251.151271 C82.7884904,251.151271 81.1433958,251.110676 79.522454,251.03042 C78.3149593,260.280747 75.9975402,267.593998 73.1748609,270.044489 C66.1831479,276.114301 31.0814556,273.137232 31.0814556,273.137232 C27.9259901,271.393029 33.9548336,267.036902 31.0814556,264.394015 C15.0225404,249.62328 6.53149008,204.803555 2.9727317,180.213544 C0.995478381,170.84488 -2.55136055e-12,160.892502 -2.55136055e-12,150.577432 C-2.55136055e-12,95.0320337 45.0661225,50.0035919 100.658002,50.0035919 C156.249881,50.0035919 201.316004,95.0320337 201.316004,150.577432 C201.316004,154.90827 200.943552,159.175174 200.230377,163.361785 C198.827906,172.269935 191.849209,216.003684 187.85675,229.905341 C183.40312,245.412783 175.118692,262.344092 175.118692,262.344092 C172.374473,268.304979 164.834803,273.396626 158.28638,273.637437 C158.28638,273.637437 119.208402,276.114301 112.216689,270.044489 C110.208534,268.301122 122.664716,265.954247 112.216689,258.484164 C109.378239,256.454742 107.595469,253.066739 106.663575,248.86705 Z" id="Combined-Shape" fill="url(#linearGradient-3)"></path>
                                        <g id="Group-2" transform="translate(182.952297, 93.664163) rotate(-180.000000) translate(-182.952297, -93.664163) translate(159.452297, 30.164163)">
                                            <path d="M12.6331713,104.300755 C9.35167903,111.592163 8.26798337,115.237867 9.38208429,115.237867 C10.4961852,115.237867 13.4819559,114.565105 18.3393964,113.219579 C18.7968058,119.46945 19.8003867,122.594385 21.3501392,122.594385 C22.8998917,122.594385 25.1435216,119.46945 28.0810289,113.219579 L12.6331713,104.300755 Z" id="Path-6" fill="#FFFFFF" transform="translate(18.519773, 113.447570) rotate(-30.000000) translate(-18.519773, -113.447570) "></path>
                                            <path d="M6.6291117,0.192115258 C-4.37751131,70.6049903 -1.57887951,108.35829 15.0250071,113.452015 C31.6288937,118.54574 42.2556871,85.8882788 46.9053874,15.4796314 L6.6291117,0.192115258 Z" id="Path-2" fill="url(#linearGradient-4)"></path>
                                        </g>
                                    </g>
                                </g>
                                <circle id="Oval" fill="#331523" cx="27.5405477" cy="115.344891" r="5.94011814"></circle>
                                <circle id="Oval" fill="#331523" cx="98.8219654" cy="120.744999" r="5.94011814"></circle>
                                <g id="Group" transform="translate(43.200859, 115.884902)">
                                    <mask id="mask-7" fill="white">
                                        <use xlink:href="#path-6"></use>
                                    </mask>
                                    <use id="Oval" fill="url(#linearGradient-5)" xlink:href="#path-6"></use>
                                    <path d="M8.49897069e-13,22.5358546 C2.89226991,21.4998086 5.08854229,22.3069247 6.58881713,24.9572029 C8.08909197,27.6074811 8.66988441,31.5286569 8.33119445,36.7207303 L8.49897069e-13,27.3626257 L8.49897069e-13,22.5358546 Z" id="Path-4" fill="#4C5F96" mask="url(#mask-7)"></path>
                                    <path d="M27.1478357,23.0353558 C29.7187535,22.0172483 31.6710041,22.8103897 33.0045876,25.41478 C34.338171,28.0191703 34.5869792,32.5083256 33.7510122,38.882246 L21.0184529,25.5500907 L27.1478357,23.0353558 Z" id="Path-4" fill="#4C5F96" mask="url(#mask-7)" transform="translate(27.626317, 30.744196) scale(-1, 1) rotate(-24.000000) translate(-27.626317, -30.744196) "></path>
                                </g>
                                <path d="M55.1983135,245.996835 C55.1983135,245.996835 71.1716026,251.5595 86.9655714,251.131978 C102.75954,250.704456 114.395066,246.446319 114.395066,246.446319 L55.1983135,245.996835 Z" id="Path-53" fill="#1F5967" opacity="0.300000012"></path>
                                <path d="M74.7736972,170.656192 C60.9189175,171.406124 49.4528258,168.35634 40.3754221,161.50684 C53.9692155,165.839374 68.0087723,166.610105 82.4940925,163.819033 C96.9794127,161.027961 110.778772,155.039925 123.89217,145.854925 C105.001301,161.63917 88.6284769,169.906259 74.7736972,170.656192 Z" id="Path-3" fill="#331523"></path>
                                <path d="M123.89217,145.854925 C122.760024,162.45026 120.329105,171.540632 116.599413,173.126041 C112.869721,174.711449 108.719215,169.351295 104.147895,157.045578 C105.705391,156.336421 108.519441,154.888187 112.590045,152.700875 C116.660649,150.513563 120.428024,148.23158 123.89217,145.854925 Z" id="Path-7" fill="#FFFFFF"></path>
                                <path d="M59.9993064,158.923324 C59.88243,171.550232 58.3028296,178.095351 55.2605051,178.558679 C52.2181806,179.022008 48.0064404,175.309193 42.6252844,167.420235 C44.8424122,166.729314 47.5268883,165.613135 50.6787126,164.071697 C53.8305369,162.530259 56.9374015,160.814135 59.9993064,158.923324 Z" id="Path-7" fill="#FFFFFF" transform="translate(51.312295, 168.760278) scale(-1, 1) rotate(15.000000) translate(-51.312295, -168.760278) "></path>
                                <path d="M56.1659841,205.254898 C56.9874954,209.223332 58.0658945,213.465652 59.4011814,217.98186 C62.3039782,227.7997 67.4281502,237.939273 74.7736972,248.40058" id="Path" stroke="#15A1A4" stroke-width="2.16004296" opacity="0.5" stroke-linecap="round"></path>
                            </g>
                        </g>
                    </g>
                </g>
            </g>
            <g id="Group-3" transform="translate(130.388780, 213.190194) rotate(-10.000000) translate(-130.388780, -213.190194) translate(13.388780, 126.190194)">
                <rect id="Rectangle" fill="#D6E9F4" x="0" y="5.61050119" width="228.627924" height="167.613723" rx="2.8052506"></rect>
                <rect id="Rectangle" fill="#FFFFFF" x="4.90918854" y="0" width="228.627924" height="167.613723" rx="2.8052506"></rect>
                <g id="Group-8" transform="translate(43.481384, 37.912011)">
                    <path d="M83.4562053,41.7800146 C112.367818,51.3646208 134.576052,49.2345364 150.080907,35.3897612 L150.080907,85.5190154 L0,85.5190154 C26.7258572,46.7750753 54.5445923,32.1954084 83.4562053,41.7800146 Z" id="Rectangle" fill="#D5E5FF" opacity="0.200000003"></path>
                    <path d="M83.4562053,62.8193941 C112.367818,72.4040003 134.576052,70.2739158 150.080907,56.4291407 L150.080907,85.5190154 L0,85.5190154 C26.7258572,60.8013283 54.5445923,53.2347879 83.4562053,62.8193941 Z" id="Rectangle" fill="#87B4FF" opacity="0.200000003"></path>
                    <polyline id="Path-8" stroke="#3884FF" stroke-width="2.10393795" stroke-linecap="round" stroke-linejoin="round" points="0.350656325 2.22334297e-13 0.350656325 85.3300796 150.188366 85.3300796"></polyline>
                    <g id="Group-7" transform="translate(20.338067, 25.907440)">
                        <path d="M3.18830169,59.4226394 L3.18830169,22.6601411" id="Path-9" stroke="#3884FF" stroke-width="2.10393795" stroke-linecap="round" stroke-linejoin="round"></path>
                        <circle id="Oval" fill="#3884FF" cx="3.15590692" cy="24.1952864" r="3.15590692"></circle>
                        <circle id="Oval" fill="#3884FF" cx="24.1952864" cy="10.1690334" r="3.15590692"></circle>
                        <circle id="Oval" fill="#3884FF" cx="87.3134248" cy="10.1690334" r="3.15590692"></circle>
                        <circle id="Oval" fill="#3884FF" cx="108.352804" cy="20.6887232" r="3.15590692"></circle>
                        <circle id="Oval" fill="#3884FF" cx="130.093496" cy="10.1690334" r="3.15590692"></circle>
                        <circle id="Oval" fill="#3884FF" cx="45.2346659" cy="3.15590692" r="3.15590692"></circle>
                        <circle id="Oval" fill="#3884FF" cx="66.2740453" cy="3.15590692" r="3.15590692"></circle>
                        <path d="M24.2276812,59.4226394 L24.2276812,8.63388814" id="Path-9" stroke="#3884FF" stroke-width="2.10393795" stroke-linecap="round" stroke-linejoin="round"></path>
                        <path d="M45.2670606,59.4226394 L45.2670606,1.62076165" id="Path-9" stroke="#3884FF" stroke-width="2.10393795" stroke-linecap="round" stroke-linejoin="round"></path>
                        <path d="M66.3064401,59.4226394 L66.3064401,1.62076165" id="Path-9" stroke="#3884FF" stroke-width="2.10393795" stroke-linecap="round" stroke-linejoin="round"></path>
                        <path d="M87.3458196,59.4226394 L87.3458196,8.63388814" id="Path-9" stroke="#3884FF" stroke-width="2.10393795" stroke-linecap="round" stroke-linejoin="round"></path>
                        <path d="M129.775235,59.4226394 L129.775235,8.63388814" id="Path-9" stroke="#3884FF" stroke-width="2.10393795" stroke-linecap="round" stroke-linejoin="round"></path>
                        <path d="M108.735855,59.4226394 L108.735855,22.6601411" id="Path-9" stroke="#3884FF" stroke-width="2.10393795" stroke-linecap="round" stroke-linejoin="round"></path>
                    </g>
                </g>
            </g>
        </g>
    </g>
</svg>