<?xml version="1.0" encoding="UTF-8"?>
<svg width="796px" height="660px" viewBox="0 0 796 660" version="1.1" xmlns="http://www.w3.org/2000/svg" xmlns:xlink="http://www.w3.org/1999/xlink">
    <!-- Generator: Sketch 52.5 (67469) - http://www.bohemiancoding.com/sketch -->
    <title>intro</title>
    <desc>Created with Sketch.</desc>
    <defs>
        <linearGradient x1="50%" y1="0%" x2="50%" y2="100%" id="linearGradient-1">
            <stop stop-color="#617FE0" offset="0%"></stop>
            <stop stop-color="#95AFFF" offset="100%"></stop>
        </linearGradient>
        <linearGradient x1="50%" y1="0%" x2="50%" y2="100%" id="linearGradient-2">
            <stop stop-color="#5475DE" offset="0%"></stop>
            <stop stop-color="#95AFFF" offset="100%"></stop>
        </linearGradient>
        <linearGradient x1="27.5483196%" y1="19.7507749%" x2="50%" y2="151.70001%" id="linearGradient-3">
            <stop stop-color="#617FE0" offset="0%"></stop>
            <stop stop-color="#95AFFF" offset="100%"></stop>
        </linearGradient>
        <linearGradient x1="33.5537911%" y1="0%" x2="50%" y2="100%" id="linearGradient-4">
            <stop stop-color="#FFDE9C" offset="0%"></stop>
            <stop stop-color="#FFAB52" offset="100%"></stop>
        </linearGradient>
        <linearGradient x1="70.5245602%" y1="110.811174%" x2="38.1694951%" y2="3.02799209%" id="linearGradient-5">
            <stop stop-color="#EE9D8A" offset="0%"></stop>
            <stop stop-color="#F6647F" offset="100%"></stop>
        </linearGradient>
        <linearGradient x1="50%" y1="0%" x2="56.9087223%" y2="117.522801%" id="linearGradient-6">
            <stop stop-color="#51679D" offset="0%"></stop>
            <stop stop-color="#BCCFE3" offset="84.0862809%"></stop>
            <stop stop-color="#D6E9F4" offset="100%"></stop>
        </linearGradient>
        <linearGradient x1="50%" y1="0%" x2="-165.600937%" y2="180.01669%" id="linearGradient-7">
            <stop stop-color="#51679D" offset="0%"></stop>
            <stop stop-color="#D6E9F4" offset="100%"></stop>
        </linearGradient>
    </defs>
    <g id="Page-1" stroke="none" stroke-width="1" fill="none" fill-rule="evenodd">
        <g id="intro" transform="translate(-75.000000, -181.000000)">
            <path d="M267.244895,795.733807 C447.878257,861.45023 830.906617,604.968858 813.778987,442.411294 C796.651356,279.853729 682.931675,349.775891 415.870525,164.53751 C148.809375,-20.7008714 21.883765,243.523132 150.670258,391.345272 C279.456751,539.167412 86.6115329,730.017384 267.244895,795.733807 Z" id="Oval-30" fill="#D5E5FF" transform="translate(457.167434, 453.639176) scale(-1, 1) rotate(-20.000000) translate(-457.167434, -453.639176) "></path>
            <g id="Group-26" transform="translate(636.864388, 535.205497) rotate(10.000000) translate(-636.864388, -535.205497) translate(449.364388, 352.705497)">
                <g id="Group-4">
                    <g id="Group-18" transform="translate(0.000000, 0.020512)">
                        <g id="Group-21" transform="translate(0.528000, 0.000000)">
                            <g id="Group-23" transform="translate(0.000000, 0.589565)">
                                <g id="Group-7">
                                    <g id="Group-2" transform="translate(104.200000, 0.000000)">
                                        <ellipse id="Oval" fill="url(#linearGradient-1)" cx="16.2" cy="67.8" rx="16.2" ry="67.8"></ellipse>
                                        <ellipse id="Oval" fill="url(#linearGradient-2)" cx="16.7" cy="80.8" rx="8.7" ry="52.8"></ellipse>
                                    </g>
                                    <g id="Group-2" transform="translate(254.200000, 20.000000)">
                                        <ellipse id="Oval" fill="url(#linearGradient-1)" cx="16.2" cy="67.8" rx="16.2" ry="67.8"></ellipse>
                                        <ellipse id="Oval" fill="url(#linearGradient-2)" cx="16.7" cy="80.8" rx="8.7" ry="52.8"></ellipse>
                                    </g>
                                    <path d="M310.158779,155 C303.213468,210.3103 307.721319,240.42758 323.68233,245.351841 C339.643341,250.276101 348.082564,227.142057 349,175.94971 L310.158779,155 Z" id="Path-2" fill="url(#linearGradient-3)" transform="translate(328.000000, 200.500000) rotate(-140.000000) translate(-328.000000, -200.500000) "></path>
                                    <path d="M32.2373361,107.386999 C27.6554466,177.238258 33.3450075,214.626017 49.3060186,219.550277 C65.2670297,224.474537 75.497807,198.713746 79.9983504,142.267904 L32.2373361,107.386999 Z" id="Path-2" fill="url(#linearGradient-3)" transform="translate(55.351385, 163.764975) scale(-1, 1) rotate(-140.000000) translate(-55.351385, -163.764975) "></path>
                                    <path d="M216.966202,337.535053 C209.783469,337.893317 202.383356,338.042274 194.824,338.042274 C185.222645,338.042274 175.878184,337.801972 166.909744,337.197713 C165.898267,346.494175 163.673942,353.989367 160.919314,356.38078 C154.575108,361.888462 125.331479,364.389923 122.724206,359.187102 C120.116934,353.984281 125.331479,353.651727 122.724206,351.253599 C116.648875,345.665607 111.767222,335.337992 107.905927,323.577175 C85.6000467,312.088815 71.8,292.101971 71.8,258.121137 C71.8,190.233668 90.8797209,73.2 194.824,73.2 C298.768279,73.2 317.848,190.233668 317.848,258.121137 C317.848,295.475695 301.1717,315.919587 274.851936,326.753029 C271.172111,337.180239 266.636318,346.174642 261.114415,351.253599 C258.507143,353.651727 263.721688,353.984281 261.114415,359.187102 C258.507143,364.389923 229.263513,361.888462 222.919307,356.38078 C220.198078,354.018361 217.99437,346.675173 216.966202,337.535053 Z" id="Combined-Shape" fill="url(#linearGradient-1)"></path>
                                    <g id="Group" transform="translate(120.752000, 222.327129)">
                                        <path d="M4.54513801,3.64934058 C21.4707493,10.0383608 43.8983838,13.2328709 71.8280414,13.2328709 C99.814863,13.2328709 124.065574,10.0576709 144.580174,3.70727096 L144.59339,3.74996375 C145.624982,3.43062922 146.720124,4.00802778 147.039458,5.03961952 C147.241242,5.69147014 147.088606,6.40136329 146.636729,6.91266851 C120.565987,36.4120791 91.961668,51.4027953 60.8237711,51.884817 C29.8072651,52.3649595 9.7373304,37.5113284 0.61396685,7.32392366 L0.61398153,7.32391922 C0.13465512,5.73792297 1.03178828,4.06364814 2.61778454,3.58432172 C3.24988275,3.39328636 3.92735128,3.41614062 4.54513801,3.64934058 Z" id="Path-7" fill="#331523"></path>
                                        <path d="M122.115658,20.3950165 C124.774511,16.0418063 127.079976,12.6786266 129.032054,10.3054773 C130.984132,7.932328 133.831053,5.03173078 137.572817,1.60368565 C140.383172,20.2874658 140.172223,30.4303372 136.939971,32.0323 C133.707719,33.6342628 128.766281,29.7551682 122.115658,20.3950165 Z" id="Path-8" fill="url(#linearGradient-4)" transform="translate(130.824538, 16.993572) rotate(-170.000000) translate(-130.824538, -16.993572) "></path>
                                        <path d="M5.27229433,30.2819286 C6.76424585,25.0405595 8.15186176,21.0848276 9.43514207,18.4147326 C10.7184224,15.7446377 12.6971708,12.6960448 15.3713872,9.2689539 C17.5733654,27.4715451 17.5733654,37.1185108 15.3713872,38.2098511 C13.1694091,39.3011915 9.80304477,36.6585506 5.27229433,30.2819286 Z" id="Path-8" fill="url(#linearGradient-4)" transform="translate(11.147583, 23.859016) scale(-1, 1) rotate(-170.000000) translate(-11.147583, -23.859016) "></path>
                                        <path d="M25.4077924,43.5378437 C38.8652463,31.640155 56.4180982,25.8303697 78.066348,26.1084878 C99.714598,26.3866058 114.1946,28.0097183 121.506355,30.9778251 C102.82699,43.6603823 84.8777842,50.7729925 67.6587387,52.3156557 C50.4396933,53.8583189 36.3560446,50.9323816 25.4077924,43.5378437 Z" id="Path-3" fill="url(#linearGradient-5)"></path>
                                    </g>
                                </g>
                            </g>
                        </g>
                        <g id="Group-8" transform="translate(154.200000, 100.400000)">
                            <g id="Group-13" transform="translate(0.000000, 0.452208)">
                                <circle id="Oval" fill="#FFFFFF" opacity="0.100000001" cx="39" cy="82" r="39"></circle>
                                <circle id="Oval" fill="#FFFFFF" opacity="0.100000001" cx="39" cy="26" r="26"></circle>
                                <circle id="Oval" fill="#FFFFFF" cx="39.4" cy="82.4" r="29.4"></circle>
                                <circle id="Oval" fill="#331523" cx="23.5000729" cy="71.5349255" r="10.08"></circle>
                            </g>
                            <g id="Group-13" transform="translate(20.800000, 8.000000)">
                                <circle id="Oval" fill="#FFFFFF" cx="18.522" cy="18.522" r="18.522"></circle>
                                <circle id="Oval" fill="#331523" cx="8.55150438" cy="11.5563156" r="6.3504"></circle>
                            </g>
                        </g>
                    </g>
                </g>
            </g>
            <g id="Group-12" transform="translate(281.185515, 431.464505) rotate(-10.000000) translate(-281.185515, -431.464505) translate(89.685515, 214.964505)">
                <g id="Group-3" transform="translate(76.561885, 0.241823)">
                    <path d="M19.5515208,3.78591289e-14 L210.41706,2.84217094e-14 C220.814726,2.65116891e-14 229.250288,8.41649811 229.273812,18.8141379 L230.165343,412.872672 C230.188904,423.286968 221.76555,431.748524 211.351253,431.772086 C211.337033,431.772118 211.322812,431.772134 211.308591,431.772134 L20.3105769,431.772134 C9.910436,431.772134 1.4738451,423.351778 1.4538119,412.951657 L0.6947558,18.8931229 C0.6746952,8.47881913 9.1008942,0.0200955573 19.5151979,3.49834803e-05 C19.5273056,1.16611655e-05 19.5394132,6.03983567e-14 19.5515208,3.78591289e-14 Z" id="Mask" fill="url(#linearGradient-6)"></path>
                    <path d="M62.3489597,22.0159919 L168.517505,22.0159919 C171.546482,22.0159919 174.18642,19.9536899 174.919532,17.0147702 C175.652644,14.0758505 178.292582,12.0135486 181.321559,12.0135486 L198.115,12.0135486 C208.679735,12.0135486 217.244144,20.5968542 217.244144,31.1848982 L218.221,400.587236 C218.221,411.17528 209.65659,419.758585 199.091855,419.758585 L32.6063112,419.758585 C22.0415762,419.758585 13.4771663,411.17528 13.4771663,400.587236 L12.6454643,31.1848982 C12.6454643,20.5968542 21.2098742,12.0135486 31.7746092,12.0135486 L49.5449051,12.0135486 C52.5738823,12.0135486 55.21382,14.0758505 55.9469324,17.0147702 C56.6800449,19.9536899 59.3199825,22.0159919 62.3489597,22.0159919 Z" id="Mask" fill="#FFFFFF"></path>
                    <g id="Group-6-Copy" transform="translate(22.676105, 153.219039)">
                        <path d="M2.60629704,0.933577081 L53.8439163,2.20024039 C55.0714741,2.23058728 56.0508095,3.23443243 56.0508095,4.46236525 L56.0508095,59.8979284 C56.0508095,61.1476472 55.0377123,62.1607444 53.7879935,62.1607444 C53.7680365,62.1607444 53.7480804,62.1604804 53.7281304,62.1599524 L2.49051115,60.8039797 C1.2645388,60.771535 0.28755825,59.7683572 0.28755825,58.5419556 L0.28755825,3.19570194 C0.28755825,1.94598317 1.30065548,0.932885943 2.55037425,0.932885943 C2.56901732,0.932885943 2.58765967,0.93311634 2.60629704,0.933577081 Z" id="Rectangle-Copy-8" fill="#FFD366" opacity="0.200000003"></path>
                        <path d="M132.72055,142.512158 L183.958169,143.778821 C185.185727,143.809168 186.165062,144.813013 186.165062,146.040946 L186.165062,201.476509 C186.165062,202.726228 185.151965,203.739325 183.902246,203.739325 C183.882289,203.739325 183.862333,203.739061 183.842383,203.738533 L132.604764,202.38256 C131.378792,202.350116 130.401811,201.346938 130.401811,200.120536 L130.401811,144.774283 C130.401811,143.524564 131.414908,142.511467 132.664627,142.511467 C132.68327,142.511467 132.701913,142.511697 132.72055,142.512158 Z" id="Rectangle-Copy-12" fill="#FFD366" opacity="0.400000006"></path>
                        <g id="Group-17" transform="translate(69.884864, 112.748771)">
                            <path d="M18.8940791,42.9506956 L121.079985,41.7979479 C122.827116,41.7782387 124.260339,43.1768099 124.283387,44.9239004 L125.679154,150.726533 C125.702233,152.475987 124.302729,153.912909 122.553275,153.935988 C122.536093,153.936215 122.518909,153.936302 122.501725,153.936249 L34.2980143,153.664462 C25.7409228,153.638095 18.8197059,146.69054 18.8258407,138.13341 L18.8940791,42.9506956 Z" id="Mask" fill="url(#linearGradient-7)" opacity="0.200000003" transform="translate(72.252636, 97.867003) scale(-1, 1) translate(-72.252636, -97.867003) "></path>
                            <path d="M3.98873509,2.32250887 L156.886576,0.597685606 C158.633708,0.577976415 160.06693,1.97654753 160.089978,3.72363804 L161.486299,109.568259 C161.509378,111.317713 160.109874,112.754635 158.36042,112.777714 C158.357098,112.777758 158.353776,112.777797 158.350453,112.77783 L4.05629121,114.327755 C2.30677321,114.345329 0.874261799,112.941312 0.856687434,111.191794 C0.856580886,111.181187 0.856527612,111.17058 0.856527612,111.159972 L0.856527612,5.49024971 C0.856527612,3.75458284 2.25317864,2.34208748 3.98873509,2.32250887 Z" id="Mask" fill="#3884FF" transform="translate(81.171554, 57.462699) scale(-1, 1) translate(-81.171554, -57.462699) "></path>
                            <g id="Group-3" transform="translate(81.967650, 58.324946) rotate(10.000000) translate(-81.967650, -58.324946) translate(48.467650, 18.324946)" stroke="#FFFFFF">
                                <path d="M29.0951401,30.5188442 C28.2512851,34.3599063 28.2163722,37.9264456 28.9861487,41.2235482 C30.1023584,46.0044921 35.3273938,49.5539571 38.2958006,50.1359571 L38.2958006,49.5539571 C39.4015519,49.5539571 40.0684217,49.4991212 40.8322851,49.2713511 C42.7087696,48.7118177 43.7833583,47.2999954 43.7833583,44.5170707 C43.7833583,42.1718549 42.3873224,40.8201391 39.2998266,39.4620004 C38.8969202,39.2847685 37.5275693,38.714974 37.3171264,38.6241926 C35.7430524,37.9451643 34.9056475,37.4238954 34.4398109,36.6615705 C33.6173695,35.3156748 33.4144608,33.7310575 33.819407,31.9396547 C33.9963008,31.1571232 33.6171525,30.3547505 32.9002811,29.994552 L31.5843684,29.3333638 C30.722733,28.9004273 29.673275,29.2479565 29.2403384,30.1095919 C29.1750973,30.2394357 29.1263207,30.3769161 29.0951401,30.5188442 Z" id="Path-33" stroke-width="1.164"></path>
                                <path d="M32.0231554,29.5204431 L33.2025913,26.6883933" id="Path-34" stroke-width="1.552"></path>
                                <path d="M31.7625027,29.3267316 L13.2187868,21.7449576 C12.8220902,21.5827644 12.3690205,21.772867 12.2068274,22.1695636 C12.1509037,22.3063433 12.1351966,22.4562473 12.1615532,22.6016485 L15.3511338,40.1976157 C15.8436484,41.9733882 16.7545921,42.7144018 18.0839647,42.4206565 C19.4133373,42.1269112 20.6498247,40.9307424 21.7934269,38.83215" id="Path-35" stroke-width="1.164" stroke-linecap="round"></path>
                                <ellipse id="Oval" stroke-width="1.164" fill="#FFFFFF" cx="12.7880621" cy="21.7679411" rx="1.71742333" ry="1.727782"></ellipse>
                                <path d="M43.6813801,11.8064743 C46.5472998,9.79424517 48.8381881,8.44557465 50.5540452,7.76046274 C52.1236245,7.13375698 54.619907,6.50015684 58.0428926,5.85966232 L58.042893,5.85966443 C58.6181415,5.75202636 59.0839289,5.32995121 59.2475521,4.76805768 C59.6785666,3.28792301 60.3658338,2.19008555 61.3093538,1.47454531 C62.4374125,0.619055782 64.1635972,0.127540678 66.487908,1.92983407e-14" id="Path-37" stroke-width="1.164" stroke-linecap="round"></path>
                                <path d="M33.2025913,47.4248696 C30.3507162,53.8710248 26.5618038,59.2675562 21.8358542,63.6144639 C17.4673507,67.6325941 10.3480829,72.5475766 0.47805078,78.3594112 L0.47807016,78.3594441 C0.1087837,78.5768934 -0.01430462,79.0525367 0.2031447,79.4218232 C0.34260469,79.6586632 0.5969475,79.8040582 0.871797,79.8040582 L10.2318915,79.8040582" id="Path-38" stroke-width="1.164" stroke-linecap="round"></path>
                                <ellipse id="Oval" stroke-width="1.164" fill="#FFFFFF" cx="21.3751787" cy="64.0026121" rx="1.71742333" ry="1.727782"></ellipse>
                                <path d="M40.4898416,40.1976157 C41.7260912,37.9605649 43.814437,35.6217734 46.754879,33.1812413 C49.3700409,31.0106878 52.4512987,29.432 55.9986524,28.4451778 L55.9986409,28.4451364 C56.4115581,28.3302689 56.8394121,28.5718858 56.9542797,28.984803 C56.9935868,29.1261011 56.992049,29.2756453 56.9498448,29.4161053 L53.1370628,42.1054114 C53.0137355,42.5158565 53.2464905,42.9485645 53.6569356,43.0718918 C53.7906894,43.1120811 53.9328104,43.1154283 54.0683081,43.0815805 L61.8412423,41.1398711" id="Path-39" stroke-width="1.164"></path>
                                <ellipse id="Oval" stroke-width="1.164" fill="#FFFFFF" cx="56.6777693" cy="29.4469722" rx="1.71742333" ry="1.727782"></ellipse>
                                <ellipse id="Oval" stroke-width="1.164" cx="37.0228135" cy="18.3123771" rx="9.15006552" ry="9.20876465"></ellipse>
                            </g>
                        </g>
                    </g>
                </g>
                <g id="Group-14" transform="translate(224.861762, 52.503325)">
                    <path d="M18.8598737,19.4145535 L77.6023051,20.1836382 L80.4269346,146.754267 L18.7571794,145.946856 C16.6112099,145.91876 14.8863121,144.171131 14.8863121,142.024978 L14.8863121,23.3364318 C14.8863121,21.1702526 16.6423473,19.4142174 18.8085265,19.4142174 C18.8256428,19.4142174 18.8427589,19.4143295 18.8598737,19.4145535 Z" id="Mask" fill="url(#linearGradient-7)" opacity="0.200000003"></path>
                    <path d="M4.03503502,0.961673503 L154.066549,2.92401965 C155.99794,2.94928139 157.550375,4.52215488 157.550375,6.45371071 L157.550375,113.32761 C157.550375,115.277171 155.969944,116.857603 154.020382,116.857603 C154.004993,116.857603 153.989604,116.857502 153.974215,116.857301 L3.94270141,114.894955 C2.01131078,114.869693 0.458875255,113.296819 0.458875255,111.365264 L0.458875255,4.49136456 C0.458875255,2.54180328 2.03930694,0.961371595 3.98886822,0.961371595 C4.00425764,0.961371595 4.01964691,0.961472233 4.03503502,0.961673503 Z" id="Mask" fill="#3884FF"></path>
                    <g id="Group-7" transform="translate(32.088716, 36.113339)">
                        <ellipse id="Oval" fill="#FFFFFF" cx="79.6360862" cy="7.18941176" rx="7.1840625" ry="7.18941176"></ellipse>
                        <path d="M9.92486093e-14,38.9774153 L97.2233462,38.9774153" id="Path-33-Copy" stroke="#F8EDFD" stroke-width="3.2592" opacity="0.400000006" stroke-linecap="round" stroke-linejoin="round"></path>
                        <path d="M16.4286379,8.36312711 L47.3159734,38.9774153 L71.4941487,15.671234" id="Path-6" stroke="#FFFFFF" stroke-width="1.552" stroke-dasharray="2.32800006866455"></path>
                    </g>
                </g>
                <g id="Group-16" transform="translate(0.105603, 108.166999)">
                    <path d="M76.0238836,38.241908 L145.542076,39.3792399 C147.962914,39.4188454 149.904645,41.392603 149.904645,43.8137659 L149.904645,162.427944 C149.904645,164.877393 147.918975,166.863064 145.469526,166.863064 C145.443495,166.863064 145.417464,166.862835 145.391437,166.862376 L77.5724395,165.668109 L76.0238836,38.241908 Z" id="Mask" fill="url(#linearGradient-7)" opacity="0.200000003"></path>
                    <path d="M5.0438964,0.671129342 L161.56679,3.23187618 C163.987629,3.2714816 165.92936,5.24523927 165.92936,7.66640211 L165.92936,126.280581 C165.92936,128.730029 163.943689,130.7157 161.494241,130.7157 C161.46821,130.7157 161.442179,130.715471 161.416152,130.715012 L4.89325794,127.958702 C2.47462593,127.916111 0.536227284,125.943277 0.536227284,123.52427 L0.536227284,5.10565528 C0.536227284,2.65620649 2.52189786,0.670535917 4.97134664,0.670535917 C4.99553111,0.670535917 5.01971517,0.670733732 5.0438964,0.671129342 Z" id="Mask" fill="#3884FF"></path>
                    <g id="Group-6" transform="translate(43.727165, 25.903816)" stroke="#FFFFFF">
                        <g id="Group" transform="translate(17.175467, 13.131989)" stroke-width="1.5">
                            <polygon id="Path-11" points="3.05685717e-14 13.6212043 23.3109712 27.2090653 46.7897349 13.6045326 23.3678729 -2.22316885e-14"></polygon>
                            <polygon id="Path-12" points="23.3109712 27.2090653 23.3109712 54.2249433 -1.66737664e-14 40.7211627 2.31173132e-14 13.6045326"></polygon>
                            <polygon id="Path-12" transform="translate(35.050353, 33.914738) scale(-1, 1) translate(-35.050353, -33.914738) " points="46.7897348 27.2090653 46.7897348 54.2249433 23.3109711 40.7211627 23.3109711 13.6045326"></polygon>
                        </g>
                        <g id="Group-5" stroke-linecap="round" transform="translate(34.350933, 0.000000)" stroke-width="1.67616">
                            <path d="M6.52667733,26.3816153 L6.52667733,1.38231467" id="Path-13"></path>
                            <polyline id="Path" stroke-linejoin="round" transform="translate(6.526677, 6.547411) rotate(-45.000000) translate(-6.526677, -6.547411) " points="2.0472952 2.22649126 11.0060592 2.06802874 10.8475967 11.0267927"></polyline>
                        </g>
                        <g id="Group-5" stroke-linecap="round" transform="translate(15.490049, 54.957804) rotate(-120.000000) translate(-15.490049, -54.957804) translate(8.990049, 41.457804)" stroke-width="1.67616">
                            <path d="M6.52667733,26.3816153 L6.52667733,1.38231467" id="Path-13"></path>
                            <polyline id="Path" transform="translate(6.526677, 6.547411) rotate(-45.000000) translate(-6.526677, -6.547411) " points="2.0472952 2.22649126 11.0060592 2.06802874 10.8475967 11.0267927"></polyline>
                        </g>
                        <g id="Group-5" stroke-linecap="round" transform="translate(65.578154, 54.957804) scale(-1, 1) rotate(-120.000000) translate(-65.578154, -54.957804) translate(59.078154, 41.457804)" stroke-width="1.67616">
                            <path d="M6.52667733,26.3816153 L6.52667733,1.38231467" id="Path-13"></path>
                            <polyline id="Path" transform="translate(6.526677, 6.547411) rotate(-45.000000) translate(-6.526677, -6.547411) " points="2.0472952 2.22649126 11.0060592 2.06802874 10.8475967 11.0267927"></polyline>
                        </g>
                    </g>
                </g>
            </g>
        </g>
    </g>
</svg>