<svg width="590" height="499" viewBox="0 0 590 499" fill="none" xmlns="http://www.w3.org/2000/svg">
<g clip-path="url(#clip0)">
<mask id="mask0" mask-type="alpha" maskUnits="userSpaceOnUse" x="-31" y="-57" width="653" height="653">
<path d="M621.221 -57H-31V595.221H621.221V-57Z" fill="white"/>
</mask>
<g mask="url(#mask0)">
<path fill-rule="evenodd" clip-rule="evenodd" d="M247.913 36.4275C382.717 36.4465 573.619 297.347 523.34 400.367C473.061 503.387 414.89 430.03 194.46 488.047C-25.9703 546.065 -46.2391 341.491 74.0907 274.965C194.42 208.439 113.11 36.4086 247.913 36.4275Z" fill="#D5E5FF"/>
<path fill-rule="evenodd" clip-rule="evenodd" d="M311.844 323.465C311.852 348.459 290.313 376.046 261.852 376.046C233.391 376.046 219.166 359.207 219.158 334.219C219.156 327.766 226.938 311.765 233.391 311.763C239.745 311.761 244.915 316.831 245.075 323.146L245.079 323.443C245.083 335.565 254.822 345.367 266.792 345.371C278.636 345.375 288.247 330.288 290.649 323.146C293.05 316.005 293.703 311.787 300.156 311.785C306.609 311.783 311.842 317.012 311.844 323.465Z" fill="url(#paint0_linear)"/>
<path fill-rule="evenodd" clip-rule="evenodd" d="M145.529 409.661C153.003 411.337 160.56 412.226 168.005 412.226C169.522 412.226 171.018 412.189 172.491 412.116C173.589 420.525 175.696 427.174 178.262 429.401C184.618 434.919 201.299 440.631 216.528 432.213C227.143 426.346 236.29 380.296 240.858 352.927C243.468 342.931 244.784 332.103 244.784 320.795C244.784 270.299 203.815 229.364 153.277 229.364C102.739 229.364 61.7697 270.299 61.7697 320.795C61.7697 324.732 62.1083 328.611 62.7566 332.417C64.0316 340.515 70.3759 380.273 74.0054 392.911C78.0541 407.009 85.5854 422.401 85.5854 422.401C88.0802 427.82 94.8949 432.789 100.839 433.368C100.839 433.368 132.877 438.127 141.033 429.401C143.871 426.365 145.314 418.768 145.529 409.661Z" fill="url(#paint1_linear)"/>
<g opacity="0.2">
<path opacity="0.2" d="M99.6766 311.846C98.8592 318.504 95.9917 323.63 93.2721 323.297C90.5524 322.963 89.0104 317.295 89.8279 310.637C90.6453 303.979 93.5128 298.852 96.2324 299.186C98.9521 299.52 100.494 305.188 99.6766 311.846Z" fill="url(#paint2_linear)"/>
<path opacity="0.2" d="M107.314 332.495C106.827 336.461 105.007 339.502 103.248 339.286C101.49 339.07 100.459 335.679 100.946 331.713C101.433 327.746 103.253 324.705 105.012 324.921C106.771 325.137 107.801 328.528 107.314 332.495Z" fill="url(#paint3_linear)"/>
<path opacity="0.2" d="M96.1189 341.004C96.3281 344.995 95.3768 348.289 93.9943 348.362C92.6117 348.434 91.3214 345.258 91.1122 341.266C90.903 337.275 91.8542 333.981 93.2368 333.909C94.6194 333.836 95.9097 337.013 96.1189 341.004Z" fill="url(#paint4_linear)"/>
</g>
<mask id="mask1" mask-type="alpha" maskUnits="userSpaceOnUse" x="154" y="312" width="67" height="45">
<path d="M187.81 356.088C170.612 356.088 147.87 349.811 156.671 312.942H218.948C227.696 351.508 205.007 356.088 187.81 356.088Z" fill="white"/>
</mask>
<g mask="url(#mask1)">
<path d="M187.81 356.088C170.612 356.088 147.87 349.811 156.671 312.942H218.948C227.696 351.508 205.007 356.088 187.81 356.088Z" fill="#331523"/>
</g>
<path fill-rule="evenodd" clip-rule="evenodd" d="M216.662 344.676C212.668 340.571 201.338 337.61 187.985 337.61C174.632 337.61 163.302 340.571 159.308 344.676C163.302 351.714 174.632 356.79 187.985 356.79C201.338 356.79 212.668 351.714 216.662 344.676Z" fill="url(#paint5_linear)"/>
<path fill-rule="evenodd" clip-rule="evenodd" d="M216.338 312.942C216.338 312.942 212.406 323.437 207.909 325.814C203.411 328.191 200.854 316.775 200.854 316.775C200.854 316.775 197.951 319.837 195.035 319.424C192.119 319.011 191.167 315.832 191.167 315.832C191.167 315.832 188.113 321.838 185.446 321.926C182.778 322.013 180.025 316.744 180.025 316.744C180.025 316.744 174.524 326.386 170.795 327.726C167.066 329.065 159.178 312.942 159.178 312.942H216.338Z" fill="white"/>
<path opacity="0.2" d="M154.624 251.682C134.36 251.682 117.933 246.792 117.933 240.759C117.933 234.727 134.36 229.837 154.624 229.837C174.889 229.837 191.316 234.727 191.316 240.759C191.316 246.792 174.889 251.682 154.624 251.682Z" fill="url(#paint6_linear)"/>
<path d="M197.004 408.511C184.675 410.904 171.984 411.644 158.933 410.731C145.881 409.818 133.417 407.319 121.54 403.234" stroke="#FFAF6C" stroke-width="2.80525" stroke-linecap="round"/>
<path d="M206.745 287.695C206.745 276.269 216.008 267.006 227.434 267.006C238.86 267.006 248.122 276.269 248.122 287.695C248.122 299.121 238.86 308.384 227.434 308.384C216.008 308.384 206.745 299.121 206.745 287.695Z" stroke="#DC5151" stroke-width="4.90919"/>
<path d="M116.276 287.695C116.276 276.269 125.538 267.006 136.964 267.006C148.39 267.006 157.653 276.269 157.653 287.695C157.653 299.121 148.39 308.384 136.964 308.384C125.538 308.384 116.276 299.121 116.276 287.695Z" stroke="#DC5151" stroke-width="4.90919"/>
<path d="M208.849 287.695H155.549" stroke="#DC5151" stroke-width="4.90919"/>
<path d="M115.574 287.695H49.651" stroke="#DC5151" stroke-width="4.90919"/>
<path d="M258.642 287.695H237.603" stroke="#DC5151" stroke-width="4.90919"/>
<path d="M229.257 286.981C226.275 286.981 223.857 284.564 223.857 281.581C223.857 278.599 226.275 276.181 229.257 276.181C232.24 276.181 234.657 278.599 234.657 281.581C234.657 284.564 232.24 286.981 229.257 286.981Z" fill="#331523"/>
<path d="M148.326 286.981C145.343 286.981 142.926 284.564 142.926 281.581C142.926 278.599 145.343 276.181 148.326 276.181C151.308 276.181 153.726 278.599 153.726 281.581C153.726 284.564 151.308 286.981 148.326 286.981Z" fill="#331523"/>
<path fill-rule="evenodd" clip-rule="evenodd" d="M137.026 364.805C124.535 386.455 92.0888 399.576 67.4409 385.346C42.793 371.115 38.8937 349.42 51.3809 327.775C54.6055 322.186 64.2023 309.274 73.0043 314.355C81.8064 319.437 82.3811 325.596 79.3615 331.145L79.2021 331.421C73.1446 341.921 76.6923 355.262 87.0567 361.25C97.3123 367.176 113.179 358.916 118.829 353.932C124.48 348.947 127.154 345.621 132.744 348.846C138.333 352.071 140.25 359.216 137.026 364.805Z" fill="url(#paint7_linear)"/>
</g>
<path fill-rule="evenodd" clip-rule="evenodd" d="M266.57 52.5727L454.536 19.4293C464.776 17.6237 474.545 24.4475 476.374 34.6831L545.679 422.6C547.511 432.852 540.685 442.648 530.433 444.48C530.419 444.482 530.405 444.485 530.391 444.487L342.294 477.653C332.052 479.459 322.282 472.632 320.456 462.393L251.281 74.4533C249.453 64.2007 256.282 54.4072 266.535 52.5791C266.546 52.5769 266.558 52.5748 266.57 52.5727Z" fill="url(#paint8_linear)"/>
<path fill-rule="evenodd" clip-rule="evenodd" d="M312.541 66.8225L417.096 48.3866C420.079 47.8606 422.321 45.3712 422.532 42.3496C422.744 39.328 424.986 36.8386 427.969 36.3127L444.507 33.3965C454.911 31.562 464.836 38.5277 466.675 48.9549L531.783 412.576C533.621 423.003 526.678 432.943 516.273 434.777L352.317 463.687C341.913 465.522 331.988 458.556 330.149 448.129L265.184 84.4831C263.346 74.0559 270.29 64.1158 280.694 62.2812L298.194 59.1954C301.177 58.6695 304.135 60.242 305.367 63.009C306.6 65.776 309.558 67.3485 312.541 66.8225Z" fill="white"/>
<path opacity="0.1" d="M323.92 147.237C340.591 143.997 351.478 127.856 348.237 111.185C344.997 94.5143 328.856 83.6269 312.185 86.8674C295.514 90.1078 284.627 106.249 287.867 122.92C291.108 139.591 307.249 150.478 323.92 147.237Z" fill="url(#paint9_linear)"/>
<path d="M321.971 135.901C332.814 133.793 339.895 123.295 337.787 112.452C335.68 101.61 325.181 94.5283 314.339 96.6359C303.496 98.7436 296.415 109.242 298.522 120.085C300.63 130.927 311.128 138.009 321.971 135.901Z" fill="#3884FF"/>
<path opacity="0.3" d="M438.076 325.735C454.747 322.494 465.634 306.353 462.394 289.682C459.153 273.012 443.012 262.124 426.341 265.365C409.671 268.605 398.783 284.746 402.024 301.417C405.264 318.088 421.405 328.975 438.076 325.735Z" fill="url(#paint10_linear)"/>
<path d="M436.318 315.38C447.161 313.272 454.242 302.774 452.134 291.931C450.027 281.089 439.528 274.007 428.686 276.115C417.843 278.223 410.762 288.721 412.869 299.564C414.977 310.406 425.475 317.488 436.318 315.38Z" fill="url(#paint11_linear)"/>
<path fill-rule="evenodd" clip-rule="evenodd" d="M403.468 407.277C391.172 399.282 388.348 394.638 394.996 393.346C401.645 392.054 406.043 391.647 408.191 392.126L403.468 407.277Z" fill="#DC5151"/>
<path fill-rule="evenodd" clip-rule="evenodd" d="M425.573 303.695C427.622 289.172 430.638 284.651 434.618 290.13C438.599 295.609 440.827 299.423 441.301 301.572L425.573 303.695Z" fill="#DC5151"/>
<path fill-rule="evenodd" clip-rule="evenodd" d="M507.114 349.027L475.283 335.719C468.324 332.806 459.895 334.444 454.534 339.752L453.995 340.286L447.122 304.927C445.775 297.997 439.041 293.458 432.115 294.804C425.188 296.15 420.645 302.881 421.992 309.811L437.189 387.992C437.497 389.575 436.612 390.59 436.217 390.953C435.824 391.32 434.742 392.112 433.189 391.685L416.346 386.53C414.326 385.967 412.177 385.882 410.122 386.281C402.784 387.708 397.975 394.838 399.401 402.175L399.867 404.574C400.036 405.445 400.56 406.206 401.314 406.677L438.86 432.455C447.82 438.064 458.468 440.044 468.855 438.025L497.973 432.365C515.292 428.999 526.646 412.167 523.279 394.847L516.648 360.736C515.625 355.472 512.062 351.096 507.114 349.027Z" fill="url(#paint12_linear)"/>
<path d="M322.162 136.883L331.13 183.019C334.291 199.283 350.039 209.905 366.303 206.744L382.173 203.659C398.437 200.497 414.184 211.119 417.346 227.383L426.886 276.465" stroke="#667BAA" stroke-width="2" stroke-dasharray="5 5"/>
</g>
<defs>
<linearGradient id="paint0_linear" x1="183.428" y1="376.046" x2="239.604" y2="324.934" gradientUnits="userSpaceOnUse">
<stop stop-color="#FFEBB4"/>
<stop offset="1" stop-color="#FFAF6C"/>
</linearGradient>
<linearGradient id="paint1_linear" x1="118.312" y1="464.318" x2="137.959" y2="245.365" gradientUnits="userSpaceOnUse">
<stop stop-color="#FFEBB4"/>
<stop offset="0.509695" stop-color="#FFC585"/>
<stop offset="1" stop-color="#FFAA64"/>
</linearGradient>
<linearGradient id="paint2_linear" x1="89.8279" y1="310.637" x2="99.6766" y2="311.846" gradientUnits="userSpaceOnUse">
<stop stop-color="#F18E78"/>
<stop offset="1" stop-color="#DF5543"/>
</linearGradient>
<linearGradient id="paint3_linear" x1="100.946" y1="331.713" x2="107.314" y2="332.495" gradientUnits="userSpaceOnUse">
<stop stop-color="#F18E78"/>
<stop offset="1" stop-color="#DF5543"/>
</linearGradient>
<linearGradient id="paint4_linear" x1="91.1122" y1="341.266" x2="96.1189" y2="341.004" gradientUnits="userSpaceOnUse">
<stop stop-color="#F18E78"/>
<stop offset="1" stop-color="#DF5543"/>
</linearGradient>
<linearGradient id="paint5_linear" x1="205.859" y1="319.65" x2="203.814" y2="357.642" gradientUnits="userSpaceOnUse">
<stop stop-color="#3EEFD5"/>
<stop offset="1" stop-color="#08B2B3"/>
</linearGradient>
<linearGradient id="paint6_linear" x1="154.624" y1="229.837" x2="154.624" y2="251.682" gradientUnits="userSpaceOnUse">
<stop stop-color="#F18E78"/>
<stop offset="1" stop-color="#DF5543"/>
</linearGradient>
<linearGradient id="paint7_linear" x1="-0.476497" y1="346.134" x2="73.7157" y2="329.947" gradientUnits="userSpaceOnUse">
<stop stop-color="#FFEBB4"/>
<stop offset="1" stop-color="#FFAF6C"/>
</linearGradient>
<linearGradient id="paint8_linear" x1="360.992" y1="35.9236" x2="503.138" y2="521.649" gradientUnits="userSpaceOnUse">
<stop stop-color="#51679D"/>
<stop offset="0.840863" stop-color="#BCCFE3"/>
<stop offset="1" stop-color="#D6E9F4"/>
</linearGradient>
<linearGradient id="paint9_linear" x1="282.382" y1="33.9899" x2="323.92" y2="147.237" gradientUnits="userSpaceOnUse">
<stop stop-color="#D5E5FF"/>
<stop offset="1" stop-color="#08B2B3"/>
</linearGradient>
<linearGradient id="paint10_linear" x1="451.187" y1="331.607" x2="433.691" y2="268.66" gradientUnits="userSpaceOnUse">
<stop stop-color="#FFEBB4"/>
<stop offset="0.509695" stop-color="#FFC585"/>
<stop offset="1" stop-color="#FFAA64"/>
</linearGradient>
<linearGradient id="paint11_linear" x1="444.845" y1="319.199" x2="433.466" y2="278.258" gradientUnits="userSpaceOnUse">
<stop stop-color="#FFEBB4"/>
<stop offset="0.509695" stop-color="#FFC585"/>
<stop offset="1" stop-color="#FFAA64"/>
</linearGradient>
<linearGradient id="paint12_linear" x1="496.841" y1="448.841" x2="413.271" y2="308.708" gradientUnits="userSpaceOnUse">
<stop stop-color="#EE9D8A"/>
<stop offset="1" stop-color="#F6647F"/>
</linearGradient>
<clipPath id="clip0">
<rect width="590" height="499" fill="white"/>
</clipPath>
</defs>
</svg>
