<svg width="532" height="480" viewBox="0 0 532 480" fill="none" xmlns="http://www.w3.org/2000/svg">
<g clip-path="url(#clip0)">
<mask id="mask0" mask-type="alpha" maskUnits="userSpaceOnUse" x="-85" y="-103" width="653" height="653">
<path d="M567.221 -103H-85V549.221H567.221V-103Z" fill="white"/>
</mask>
<g mask="url(#mask0)">
<path fill-rule="evenodd" clip-rule="evenodd" d="M284.334 479.833C149.531 479.814 -41.3716 218.914 8.90741 115.894C59.1864 12.8736 117.358 86.2307 337.788 28.2133C558.218 -29.804 578.487 174.769 458.157 241.296C337.827 307.822 419.138 479.852 284.334 479.833Z" fill="#D5E5FF"/>
<path d="M73.146 404.049C77.2129 404.049 80.5098 400.752 80.5098 396.685C80.5098 392.618 77.2129 389.321 73.146 389.321C69.0791 389.321 65.7822 392.618 65.7822 396.685C65.7822 400.752 69.0791 404.049 73.146 404.049Z" fill="#E8F3F9"/>
<path d="M277.516 155.23C283.791 155.23 288.877 133.942 288.877 107.681C288.877 81.4208 283.791 60.1324 277.516 60.1324C271.241 60.1324 266.155 81.4208 266.155 107.681C266.155 133.942 271.241 155.23 277.516 155.23Z" fill="url(#paint0_linear)"/>
<path d="M277.867 153.828C281.236 153.828 283.968 137.249 283.968 116.798C283.968 96.3477 281.236 79.7691 277.867 79.7691C274.497 79.7691 271.765 96.3477 271.765 116.798C271.765 137.249 274.497 153.828 277.867 153.828Z" fill="url(#paint1_linear)"/>
<path d="M382.713 169.257C388.988 169.257 394.074 147.968 394.074 121.708C394.074 95.447 388.988 74.1586 382.713 74.1586C376.438 74.1586 371.352 95.447 371.352 121.708C371.352 147.968 376.438 169.257 382.713 169.257Z" fill="url(#paint2_linear)"/>
<path d="M383.064 167.854C386.433 167.854 389.165 151.275 389.165 130.825C389.165 110.374 386.433 93.7954 383.064 93.7954C379.694 93.7954 376.962 110.374 376.962 130.825C376.962 151.275 379.694 167.854 383.064 167.854Z" fill="url(#paint3_linear)"/>
<path fill-rule="evenodd" clip-rule="evenodd" d="M411.481 230.427C440.146 203.844 451.301 185.631 444.946 175.791C438.591 165.95 423.628 174.574 400.058 201.663L411.481 230.427Z" fill="url(#paint4_linear)"/>
<path fill-rule="evenodd" clip-rule="evenodd" d="M345.239 296.85C340.202 297.101 335.012 297.206 329.711 297.206C322.977 297.206 316.424 297.037 310.134 296.613C309.425 303.133 307.865 308.39 305.933 310.067C301.483 313.929 280.975 315.684 279.146 312.035C277.318 308.386 280.975 308.153 279.146 306.471C274.885 302.552 271.462 295.309 268.754 287.061C253.11 279.004 243.432 264.987 243.432 241.156C243.432 193.546 256.813 111.468 329.711 111.468C402.608 111.468 415.989 193.546 415.989 241.156C415.989 267.353 404.294 281.691 385.835 289.288C383.254 296.601 380.073 302.909 376.201 306.471C374.372 308.153 378.029 308.386 376.201 312.035C374.372 315.684 353.863 313.929 349.414 310.067C347.506 308.41 345.96 303.26 345.239 296.85Z" fill="url(#paint5_linear)"/>
<path fill-rule="evenodd" clip-rule="evenodd" d="M381.386 217.177L367.385 221.288C368.411 212.698 370.137 208.047 372.565 207.334C374.992 206.621 377.933 209.902 381.386 217.177Z" fill="url(#paint6_linear)"/>
<path fill-rule="evenodd" clip-rule="evenodd" d="M281.555 217.528L291.093 220.328C290.395 214.477 289.218 211.308 287.564 210.822C285.911 210.337 283.908 212.572 281.555 217.528Z" fill="url(#paint7_linear)"/>
<path fill-rule="evenodd" clip-rule="evenodd" d="M290.114 221.708L297.868 223.984C297.299 219.228 296.343 216.652 294.999 216.257C293.655 215.862 292.027 217.679 290.114 221.708Z" fill="url(#paint8_linear)"/>
<path d="M277.062 217.002C289.303 222.556 306.328 225.334 328.137 225.334C349.945 225.334 368.519 222.584 383.857 217.086" stroke="#52689E" stroke-width="2.52473" stroke-linecap="round"/>
<path fill-rule="evenodd" clip-rule="evenodd" d="M264.993 225.418C292.468 250.862 303.138 268.316 297.005 277.78C290.872 287.244 276.517 279.005 253.939 253.063L264.993 225.418Z" fill="url(#paint9_linear)"/>
<path opacity="0.1" d="M328.201 215.307C343.307 215.307 355.553 203.061 355.553 187.955C355.553 172.85 343.307 160.604 328.201 160.604C313.096 160.604 300.85 172.85 300.85 187.955C300.85 203.061 313.096 215.307 328.201 215.307Z" fill="white"/>
<path opacity="0.1" d="M328.201 166.916C338.272 166.916 346.435 158.752 346.435 148.682C346.435 138.612 338.272 130.448 328.201 130.448C318.131 130.448 309.967 138.612 309.967 148.682C309.967 158.752 318.131 166.916 328.201 166.916Z" fill="white"/>
<path d="M328.482 208.855C339.869 208.855 349.1 199.623 349.1 188.236C349.1 176.849 339.869 167.617 328.482 167.617C317.095 167.617 307.863 176.849 307.863 188.236C307.863 199.623 317.095 208.855 328.482 208.855Z" fill="white"/>
<path d="M327.893 195.081C331.797 195.081 334.962 191.916 334.962 188.012C334.962 184.107 331.797 180.942 327.893 180.942C323.989 180.942 320.824 184.107 320.824 188.012C320.824 191.916 323.989 195.081 327.893 195.081Z" fill="#331523"/>
<path d="M328.427 161.721C335.601 161.721 341.417 155.905 341.417 148.731C341.417 141.557 335.601 135.741 328.427 135.741C321.253 135.741 315.437 141.557 315.437 148.731C315.437 155.905 321.253 161.721 328.427 161.721Z" fill="white"/>
<path d="M328.056 153.541C330.516 153.541 332.51 151.547 332.51 149.087C332.51 146.628 330.516 144.634 328.056 144.634C325.596 144.634 323.602 146.628 323.602 149.087C323.602 151.547 325.596 153.541 328.056 153.541Z" fill="#331523"/>
<path fill-rule="evenodd" clip-rule="evenodd" d="M335.603 262.227L355.843 377.014C356.085 378.387 355.168 379.697 353.795 379.939L72.0754 429.614C70.7022 429.856 69.3928 428.939 69.1506 427.566L48.9105 312.779C48.6684 311.405 49.5853 310.096 50.9585 309.854L332.678 260.179C334.051 259.937 335.361 260.854 335.603 262.227Z" fill="#D6E9F4"/>
<path fill-rule="evenodd" clip-rule="evenodd" d="M340.442 253.326L360.683 368.114C360.925 369.487 360.008 370.797 358.635 371.039L76.9152 420.713C75.542 420.956 74.2325 420.039 73.9904 418.665L53.7503 303.878C53.5082 302.505 54.4251 301.195 55.7982 300.953L337.518 251.279C338.891 251.036 340.2 251.953 340.442 253.326V253.326Z" fill="white"/>
<path d="M319.69 337.57L312.052 294.252C311.713 292.33 309.88 291.046 307.958 291.385L264.639 299.023C262.717 299.362 261.433 301.196 261.772 303.118L269.41 346.436C269.749 348.359 271.583 349.642 273.505 349.303L316.823 341.665C318.746 341.326 320.029 339.493 319.69 337.57Z" fill="#3884FF"/>
<path d="M296.159 321.239C296.603 323.756 294.922 326.157 292.404 326.601C289.887 327.045 287.486 325.364 287.042 322.846" stroke="white" stroke-width="1.54289" stroke-linecap="round"/>
<path fill-rule="evenodd" clip-rule="evenodd" d="M282.838 318.104C282.616 316.845 281.415 316.005 280.157 316.227C278.898 316.449 278.057 317.649 278.279 318.908L282.838 318.104V318.104Z" fill="white"/>
<path fill-rule="evenodd" clip-rule="evenodd" d="M302.59 314.621C302.369 313.363 301.168 312.522 299.909 312.744C298.651 312.966 297.81 314.166 298.032 315.425L302.59 314.621V314.621Z" fill="white"/>
<path opacity="0.5" d="M272.462 363.7L322.735 354.836" stroke="#3884FF" stroke-width="1.40263" stroke-linecap="round"/>
<path d="M313.908 356.127L311.633 354.534C311.329 354.321 311.121 353.995 311.057 353.629L310.524 350.609C310.39 349.846 310.899 349.119 311.662 348.984L315.53 348.302C316.292 348.168 317.02 348.677 317.154 349.44L317.687 352.459C317.751 352.826 317.668 353.203 317.454 353.508L315.862 355.782C315.417 356.417 314.543 356.571 313.908 356.127Z" fill="#3884FF"/>
<path d="M152.551 367.042L144.913 323.724C144.574 321.801 142.741 320.517 140.818 320.856L97.5002 328.495C95.5777 328.834 94.2941 330.667 94.6331 332.589L102.271 375.907C102.61 377.83 104.443 379.113 106.366 378.774L149.684 371.136C151.606 370.797 152.89 368.964 152.551 367.042Z" fill="#3884FF"/>
<path d="M129.787 355.061C129.343 352.544 126.942 350.863 124.425 351.307C121.907 351.75 120.226 354.151 120.67 356.669" stroke="white" stroke-width="1.54289" stroke-linecap="round"/>
<path fill-rule="evenodd" clip-rule="evenodd" d="M115.89 347.328C116.112 348.587 115.271 349.787 114.012 350.009C112.754 350.231 111.553 349.391 111.331 348.132L115.89 347.328V347.328Z" fill="white"/>
<path fill-rule="evenodd" clip-rule="evenodd" d="M135.643 343.845C135.865 345.104 135.024 346.304 133.765 346.526C132.507 346.748 131.306 345.908 131.084 344.649L135.643 343.845V343.845Z" fill="white"/>
<path opacity="0.5" d="M105.323 393.171L155.595 384.307" stroke="#3884FF" stroke-width="1.40263" stroke-linecap="round"/>
<path d="M112.236 391.687L109.961 390.094C109.656 389.881 109.449 389.555 109.384 389.189L108.852 386.17C108.717 385.407 109.227 384.679 109.99 384.545L113.857 383.863C114.62 383.728 115.348 384.238 115.482 385L116.015 388.02C116.079 388.386 115.996 388.763 115.782 389.068L114.189 391.343C113.745 391.977 112.871 392.131 112.236 391.687Z" fill="#3884FF"/>
<path d="M236.121 352.306L228.483 308.988C228.144 307.065 226.31 305.782 224.388 306.121L181.07 313.759C179.147 314.098 177.864 315.931 178.203 317.854L185.841 361.172C186.18 363.094 188.013 364.378 189.936 364.039L233.254 356.401C235.176 356.062 236.46 354.228 236.121 352.306Z" fill="#3884FF"/>
<path d="M214.69 330.12C214.912 331.379 216.113 332.22 217.371 331.998C218.63 331.776 219.471 330.575 219.249 329.317C219.027 328.058 217.826 327.217 216.568 327.439C215.309 327.661 214.468 328.862 214.69 330.12Z" fill="white"/>
<path d="M212.589 335.974L203.473 337.582" stroke="white" stroke-width="1.54289" stroke-linecap="round"/>
<path d="M194.938 333.603C195.16 334.862 196.36 335.703 197.619 335.481C198.877 335.259 199.718 334.058 199.496 332.8C199.274 331.541 198.074 330.7 196.815 330.922C195.556 331.144 194.716 332.345 194.938 333.603Z" fill="white"/>
<path opacity="0.5" d="M188.893 378.436L239.165 369.571" stroke="#3884FF" stroke-width="1.40263" stroke-linecap="round"/>
<path d="M212.589 373.992L210.314 372.399C210.009 372.186 209.802 371.86 209.737 371.494L209.205 368.475C209.07 367.712 209.579 366.984 210.342 366.85L214.21 366.168C214.973 366.033 215.7 366.543 215.835 367.306L216.367 370.325C216.432 370.691 216.348 371.068 216.135 371.373L214.542 373.648C214.098 374.282 213.223 374.436 212.589 373.992Z" fill="#3884FF"/>
<path d="M64.2714 309.851L85.9016 306.037" stroke="#D6E9F4" stroke-width="2.10394"/>
<path d="M65.4283 316.412L80.1519 313.816" stroke="#D6E9F4" stroke-width="2.10394"/>
<path fill-rule="evenodd" clip-rule="evenodd" d="M251.794 208.831C290.518 244.484 306.814 267.043 300.68 276.507C294.547 285.971 276.7 275.351 247.14 244.646L251.794 208.831Z" fill="url(#paint10_linear)"/>
</g>
</g>
<defs>
<linearGradient id="paint0_linear" x1="277.516" y1="60.1324" x2="277.516" y2="155.23" gradientUnits="userSpaceOnUse">
<stop stop-color="#617FE0"/>
<stop offset="1" stop-color="#95AFFF"/>
</linearGradient>
<linearGradient id="paint1_linear" x1="277.867" y1="79.7691" x2="277.867" y2="153.828" gradientUnits="userSpaceOnUse">
<stop stop-color="#5475DE"/>
<stop offset="1" stop-color="#95AFFF"/>
</linearGradient>
<linearGradient id="paint2_linear" x1="382.713" y1="74.1586" x2="382.713" y2="169.257" gradientUnits="userSpaceOnUse">
<stop stop-color="#617FE0"/>
<stop offset="1" stop-color="#95AFFF"/>
</linearGradient>
<linearGradient id="paint3_linear" x1="383.064" y1="93.7954" x2="383.064" y2="167.854" gradientUnits="userSpaceOnUse">
<stop stop-color="#5475DE"/>
<stop offset="1" stop-color="#95AFFF"/>
</linearGradient>
<linearGradient id="paint4_linear" x1="415.064" y1="216.98" x2="442.553" y2="140.47" gradientUnits="userSpaceOnUse">
<stop stop-color="#617FE0"/>
<stop offset="1" stop-color="#95AFFF"/>
</linearGradient>
<linearGradient id="paint5_linear" x1="329.711" y1="111.468" x2="329.711" y2="314.035" gradientUnits="userSpaceOnUse">
<stop stop-color="#617FE0"/>
<stop offset="1" stop-color="#95AFFF"/>
</linearGradient>
<linearGradient id="paint6_linear" x1="375.899" y1="222.789" x2="375.765" y2="207.756" gradientUnits="userSpaceOnUse">
<stop stop-color="#FFDE9C"/>
<stop offset="1" stop-color="#FFAB52"/>
</linearGradient>
<linearGradient id="paint7_linear" x1="285.293" y1="221.351" x2="285.384" y2="211.11" gradientUnits="userSpaceOnUse">
<stop stop-color="#FFDE9C"/>
<stop offset="1" stop-color="#FFAB52"/>
</linearGradient>
<linearGradient id="paint8_linear" x1="293.153" y1="224.816" x2="293.227" y2="216.491" gradientUnits="userSpaceOnUse">
<stop stop-color="#FFDE9C"/>
<stop offset="1" stop-color="#FFAB52"/>
</linearGradient>
<linearGradient id="paint9_linear" x1="282.296" y1="273.934" x2="279.536" y2="239.386" gradientUnits="userSpaceOnUse">
<stop stop-color="#6784E3"/>
<stop offset="1" stop-color="#819CF3" stop-opacity="0"/>
</linearGradient>
<linearGradient id="paint10_linear" x1="275.088" y1="254.242" x2="253.698" y2="259.626" gradientUnits="userSpaceOnUse">
<stop stop-color="#6784E3"/>
<stop offset="1" stop-color="#819CF3" stop-opacity="0"/>
</linearGradient>
<clipPath id="clip0">
<rect width="532" height="480" fill="white"/>
</clipPath>
</defs>
</svg>
