<?xml version="1.0" encoding="UTF-8"?>
<svg width="804px" height="660px" viewBox="0 0 804 660" version="1.1" xmlns="http://www.w3.org/2000/svg" xmlns:xlink="http://www.w3.org/1999/xlink">
    <!-- Generator: Sketch 52.5 (67469) - http://www.bohemiancoding.com/sketch -->
    <title>Group 3</title>
    <desc>Created with Sketch.</desc>
    <defs>
        <linearGradient x1="50%" y1="0%" x2="50%" y2="100%" id="linearGradient-1">
            <stop stop-color="#617FE0" offset="0%"></stop>
            <stop stop-color="#95AFFF" offset="100%"></stop>
        </linearGradient>
        <linearGradient x1="50%" y1="0%" x2="50%" y2="100%" id="linearGradient-2">
            <stop stop-color="#5475DE" offset="0%"></stop>
            <stop stop-color="#95AFFF" offset="100%"></stop>
        </linearGradient>
        <linearGradient x1="27.5483196%" y1="19.7507749%" x2="50%" y2="151.70001%" id="linearGradient-3">
            <stop stop-color="#617FE0" offset="0%"></stop>
            <stop stop-color="#95AFFF" offset="100%"></stop>
        </linearGradient>
        <linearGradient x1="33.5537911%" y1="0%" x2="50%" y2="100%" id="linearGradient-4">
            <stop stop-color="#FFDE9C" offset="0%"></stop>
            <stop stop-color="#FFAB52" offset="100%"></stop>
        </linearGradient>
        <linearGradient x1="70.5245602%" y1="110.811174%" x2="38.1694951%" y2="3.02799209%" id="linearGradient-5">
            <stop stop-color="#EE9D8A" offset="0%"></stop>
            <stop stop-color="#F6647F" offset="100%"></stop>
        </linearGradient>
        <linearGradient x1="-5.4921803%" y1="159.713383%" x2="160.869325%" y2="-121.569272%" id="linearGradient-6">
            <stop stop-color="#51679D" offset="0%"></stop>
            <stop stop-color="#D6E9F4" offset="100%"></stop>
        </linearGradient>
        <linearGradient x1="98.6945119%" y1="116.288729%" x2="160.869325%" y2="-121.569272%" id="linearGradient-7">
            <stop stop-color="#51679D" offset="0%"></stop>
            <stop stop-color="#D6E9F4" offset="100%"></stop>
        </linearGradient>
    </defs>
    <g id="Page-1" stroke="none" stroke-width="1" fill="none" fill-rule="evenodd">
        <g id="Group-3" transform="translate(-67.000000, -181.000000)">
            <g id="Group-10">
                <path d="M267.244895,795.733807 C447.878257,861.45023 830.906617,604.968858 813.778987,442.411294 C796.651356,279.853729 682.931675,349.775891 415.870525,164.53751 C148.809375,-20.7008714 21.8837651,243.523132 150.670258,391.345272 C279.456751,539.167412 86.611533,730.017384 267.244895,795.733807 Z" id="Oval-30" fill="#D6E3FE" transform="translate(457.167434, 453.639176) scale(-1, 1) rotate(-20.000000) translate(-457.167434, -453.639176) "></path>
                <g id="Group-26" transform="translate(580.000000, 480.500000) rotate(10.000000) translate(-580.000000, -480.500000) translate(392.000000, 298.000000)">
                    <g id="Group-4" transform="translate(0.982776, 0.000000)">
                        <g id="Group-18" transform="translate(0.000000, 0.020512)">
                            <g id="Group-21" transform="translate(0.528000, 0.000000)">
                                <g id="Group-23" transform="translate(0.000000, 0.589565)">
                                    <g id="Group-7">
                                        <g id="Group-2" transform="translate(104.200000, 0.000000)">
                                            <ellipse id="Oval" fill="url(#linearGradient-1)" cx="16.2" cy="67.8" rx="16.2" ry="67.8"></ellipse>
                                            <ellipse id="Oval" fill="url(#linearGradient-2)" cx="16.7" cy="80.8" rx="8.7" ry="52.8"></ellipse>
                                        </g>
                                        <g id="Group-2" transform="translate(254.200000, 20.000000)">
                                            <ellipse id="Oval" fill="url(#linearGradient-1)" cx="16.2" cy="67.8" rx="16.2" ry="67.8"></ellipse>
                                            <ellipse id="Oval" fill="url(#linearGradient-2)" cx="16.7" cy="80.8" rx="8.7" ry="52.8"></ellipse>
                                        </g>
                                        <path d="M310.158779,155 C303.213468,210.3103 307.721319,240.42758 323.68233,245.351841 C339.643341,250.276101 348.082564,227.142057 349,175.94971 L310.158779,155 Z" id="Path-2" fill="url(#linearGradient-3)" transform="translate(328.000000, 200.500000) rotate(-140.000000) translate(-328.000000, -200.500000) "></path>
                                        <path d="M32.2373363,107.386999 C27.6554468,177.238258 33.3450077,214.626017 49.3060188,219.550277 C65.2670299,224.474537 75.4978072,198.713746 79.9983506,142.267904 L32.2373363,107.386999 Z" id="Path-2" fill="url(#linearGradient-3)" transform="translate(55.351385, 163.764975) scale(-1, 1) rotate(-140.000000) translate(-55.351385, -163.764975) "></path>
                                        <path d="M216.966202,337.535053 C209.783469,337.893317 202.383356,338.042274 194.824,338.042274 C185.222645,338.042274 175.878184,337.801972 166.909744,337.197713 C165.898267,346.494175 163.673942,353.989367 160.919314,356.38078 C154.575108,361.888462 125.331479,364.389923 122.724206,359.187102 C120.116934,353.984281 125.331479,353.651727 122.724206,351.253599 C116.648875,345.665607 111.767222,335.337992 107.905927,323.577175 C85.6000467,312.088815 71.8,292.101971 71.8,258.121137 C71.8,190.233668 90.8797209,73.2 194.824,73.2 C298.768279,73.2 317.848,190.233668 317.848,258.121137 C317.848,295.475695 301.1717,315.919587 274.851936,326.753029 C271.172111,337.180239 266.636318,346.174642 261.114415,351.253599 C258.507143,353.651727 263.721688,353.984281 261.114415,359.187102 C258.507143,364.389923 229.263513,361.888462 222.919307,356.38078 C220.198078,354.018361 217.99437,346.675173 216.966202,337.535053 Z" id="Combined-Shape" fill="url(#linearGradient-1)"></path>
                                        <g id="Group" transform="translate(119.752000, 222.327129)">
                                            <path d="M5.54513801,3.64934058 C22.4707493,10.0383608 44.8983838,13.2328709 72.8280414,13.2328709 C100.814863,13.2328709 125.065574,10.0576709 145.580174,3.70727096 L145.59339,3.74996375 C146.624982,3.43062922 147.720124,4.00802778 148.039458,5.03961952 C148.241242,5.69147014 148.088606,6.40136329 147.636729,6.91266851 C121.565987,36.4120791 92.961668,51.4027953 61.8237711,51.884817 C30.8072651,52.3649595 10.7373304,37.5113284 1.61396685,7.32392366 L1.61398153,7.32391922 C1.13465512,5.73792297 2.03178828,4.06364814 3.61778454,3.58432172 C4.24988275,3.39328636 4.92735128,3.41614062 5.54513801,3.64934058 Z" id="Path-7" fill="#331523"></path>
                                            <path d="M123.115658,20.3950175 C125.774511,16.0418073 128.079976,12.6786276 130.032054,10.3054783 C131.984132,7.93232897 134.831053,5.03173175 138.572817,1.60368662 C141.383172,20.2874668 141.172223,30.4303382 137.939971,32.032301 C134.707719,33.6342638 129.766281,29.7551692 123.115658,20.3950175 Z" id="Path-8" fill="url(#linearGradient-4)" transform="translate(131.824538, 16.993572) rotate(190.000000) translate(-131.824538, -16.993572) "></path>
                                            <path d="M6.27229436,30.281929 C7.76424588,25.0405599 9.15186179,21.084828 10.4351421,18.414733 C11.7184224,15.7446381 13.6971708,12.6960452 16.3713872,9.26895428 C18.5733654,27.4715455 18.5733654,37.1185112 16.3713872,38.2098515 C14.1694091,39.3011919 10.8030448,36.658551 6.27229436,30.281929 Z" id="Path-8" fill="url(#linearGradient-4)" transform="translate(12.147583, 23.859016) scale(-1, 1) rotate(190.000000) translate(-12.147583, -23.859016) "></path>
                                            <path d="M26.4077924,43.5378437 C39.8652463,31.640155 57.4180982,25.8303697 79.066348,26.1084878 C100.714598,26.3866058 115.1946,28.0097183 122.506355,30.9778251 C103.82699,43.6603823 85.8777842,50.7729925 68.6587387,52.3156557 C51.4396933,53.8583189 37.3560446,50.9323816 26.4077924,43.5378437 Z" id="Path-3" fill="url(#linearGradient-5)"></path>
                                        </g>
                                    </g>
                                </g>
                            </g>
                            <g id="Group-8" transform="translate(154.200000, 100.400000)">
                                <g id="Group-13" transform="translate(0.000000, 0.452208)">
                                    <circle id="Oval" fill="#FFFFFF" opacity="0.100000001" cx="39" cy="82" r="39"></circle>
                                    <circle id="Oval" fill="#FFFFFF" opacity="0.100000001" cx="39" cy="26" r="26"></circle>
                                    <circle id="Oval" fill="#FFFFFF" cx="39.4" cy="82.4" r="29.4"></circle>
                                    <circle id="Oval" fill="#331523" cx="23.5000729" cy="71.5349255" r="10.08"></circle>
                                </g>
                                <g id="Group-13" transform="translate(20.800000, 8.000000)">
                                    <circle id="Oval" fill="#FFFFFF" cx="18.522" cy="18.522" r="18.522"></circle>
                                    <circle id="Oval" fill="#331523" cx="8.55150438" cy="11.5563156" r="6.3504"></circle>
                                </g>
                            </g>
                        </g>
                    </g>
                </g>
            </g>
            <g id="Group-55" transform="translate(247.000000, 356.500000) rotate(-10.000000) translate(-247.000000, -356.500000) translate(44.000000, 228.000000)">
                <g id="Group-58">
                    <path d="M53.04,33.56 L359.84,33.56 C361.960773,33.56 363.68,35.2792266 363.68,37.4 L363.68,240.441464 L49.2,240.441464 L49.2,37.4 C49.2,35.2792266 50.9192266,33.56 53.04,33.56 Z" id="Rectangle-12" fill="#B3C6DD"></path>
                    <path d="M67.2,49.4 L345.6,49.4 C346.925483,49.4 348,50.4745166 348,51.8 L348,225.8 C348,227.125483 346.925483,228.2 345.6,228.2 L67.2,228.2 C65.8745166,228.2 64.8,227.125483 64.8,225.8 L64.8,51.8 C64.8,50.4745166 65.8745166,49.4 67.2,49.4 Z" id="Rectangle-12" fill="url(#linearGradient-6)"></path>
                    <path d="M68.64,33.56 L360.028255,33.56 C362.149029,33.56 363.868255,35.2792266 363.868255,37.4 L363.868255,191.749228 C363.868255,193.870002 362.149029,195.589228 360.028255,195.589228 L68.64,195.589228 C66.5192266,195.589228 64.8,193.870002 64.8,191.749228 L64.8,37.4 C64.8,35.2792266 66.5192266,33.56 68.64,33.56 Z" id="Rectangle-12" fill="url(#linearGradient-7)" opacity="0.300000012"></path>
                    <path d="M93.84,9.56 L376.64,9.56 C378.760773,9.56 380.48,11.2792266 380.48,13.4 L380.48,200.653003 L90,200.653003 L90,13.4 C90,11.2792266 91.7192266,9.56 93.84,9.56 Z" id="Rectangle-12" fill="#FFFFFF"></path>
                    <g id="Group-5" transform="translate(228.500375, 100.033829) rotate(80.000000) translate(-228.500375, -100.033829) translate(138.000375, 38.033829)">
                        <g id="android" transform="translate(111.342384, 62.015637) rotate(-80.000000) translate(-111.342384, -62.015637) translate(59.842384, 0.515637)" fill-rule="nonzero">
                            <g id="Group" fill="#4CAF50">
                                <path d="M7.84191283,40.9232978 C3.60717926,40.9232978 0.174200832,44.3562762 0.174200832,48.5910098 L0.174200832,84.3735859 C0.174200832,88.6083195 3.60717926,92.0412979 7.84191283,92.0412979 C12.0766464,92.0412979 15.5096248,88.6083195 15.5096248,84.3735859 L15.5096248,48.5910098 C15.5096248,44.3562762 12.0766464,40.9232978 7.84191283,40.9232978 Z" id="Path" opacity="0.400000006"></path>
                                <path d="M94.7424891,40.9232978 C90.5077555,40.9232978 87.0747771,44.3562762 87.0747771,48.5910098 L87.0747771,84.3735859 C87.0747771,88.6083195 90.5077555,92.0412979 94.7424891,92.0412979 C98.9772227,92.0412979 102.410201,88.6083195 102.410201,84.3735859 L102.410201,48.5910098 C102.410201,44.3562762 98.9774623,40.9232978 94.7424891,40.9232978 Z" id="Path" opacity="0.400000006"></path>
                                <path d="M79.4070651,40.9232978 L23.1773368,40.9232978 C21.765759,40.9232978 20.621353,42.0677038 20.621353,43.4792817 L20.621353,84.3735859 C20.6201549,90.4473723 24.8939459,95.6827423 30.8450488,96.8975954 L30.8450488,115.044434 C30.8450488,119.279167 34.2780273,122.712146 38.5127608,122.712146 C42.7474944,122.712146 46.1804728,119.279167 46.1804728,115.044434 L46.1804728,97.153026 L56.4041687,97.153026 L56.4041687,115.044434 C56.4041687,119.279167 59.8371471,122.712146 64.0718807,122.712146 C68.3066143,122.712146 71.7395927,119.279167 71.7395927,115.044434 L71.7395927,96.8975954 C77.6906957,95.6827423 81.9644867,90.4473723 81.9632886,84.3735859 L81.9632886,43.4792817 C81.963049,42.0677038 80.8186429,40.9232978 79.4070651,40.9232978 Z" id="Path"></path>
                                <path d="M69.8737029,10.6205 L76.104917,4.39431782 C77.12017,3.41356954 77.1482051,1.7956823 76.1676964,0.780189696 C75.1869481,-0.235063296 73.5690609,-0.263098368 72.5535683,0.717410304 C72.5322424,0.73801728 72.5113958,0.758863872 72.4907889,0.780189696 L65.2321014,8.0391168 C56.3418685,4.17722573 46.2475653,4.17722573 37.3573325,8.0391168 L30.098645,0.77515776 C29.083392,-0.205590528 27.4652652,-0.17731584 26.4845169,0.837937152 C25.5279698,1.8285097 25.5279698,3.39871334 26.4845169,4.38904627 L32.710699,10.6202604 C25.120383,15.6426117 20.5743882,24.1540116 20.621353,33.2553462 C20.621353,34.666924 21.765759,35.81133 23.1773368,35.81133 L79.4073047,35.81133 C80.8188826,35.81133 81.9632886,34.666924 81.9632886,33.2553462 C82.0100137,24.1542513 77.4640189,15.6428513 69.8737029,10.6205 Z" id="Path"></path>
                            </g>
                            <g id="Group" transform="translate(35.942400, 20.367360)" fill="#FAFAFA">
                                <circle id="Oval" cx="2.57036083" cy="2.66452992" r="2.55598387"></circle>
                                <circle id="Oval" cx="28.1292411" cy="2.66452992" r="2.55598387"></circle>
                            </g>
                        </g>
                        <path d="M56.2278839,52.0009589 L45.2443067,50.0642579 L41.3680073,43.0900808 C41.0331613,42.4876311 40.273333,42.2706955 39.6708833,42.6055415 C39.4293896,42.7397655 39.2392634,42.950332 39.1303104,43.2042306 L32.9965242,57.4981118 C32.7247214,58.131508 31.9909127,58.4246373 31.3575165,58.1528345 C30.9846478,57.9928292 30.7128392,57.6615435 30.6287524,57.2646024 L26.7467597,38.939216 C26.6039206,38.2649279 25.9415081,37.8341034 25.26722,37.9769424 C24.820595,38.0715541 24.4612742,38.4024868 24.3303074,38.8398344 L19.6839129,54.3558963 C19.4861869,55.016178 18.7906342,55.3911534 18.1303525,55.1934274 C17.7037705,55.0656844 17.3775707,54.7203259 17.2743552,54.2871549 L12.6598427,34.9211256 C12.5000815,34.2506453 11.8270378,33.8366256 11.1565575,33.9963868 C10.8086423,34.0792876 10.5130145,34.3074727 10.3446879,34.6230416 L0.448024066,53.1767252" id="Path-4" stroke="#4CAF50" stroke-width="1.872"></path>
                    </g>
                    <circle id="Oval" fill="#4CAF50" opacity="0.200000003" cx="325.819319" cy="140.454122" r="6"></circle>
                    <circle id="Oval" fill="#4CAF50" opacity="0.200000003" cx="143.419319" cy="102.054122" r="3.6"></circle>
                    <circle id="Oval" fill="#4CAF50" opacity="0.200000003" cx="289.819319" cy="42.0541224" r="3.6"></circle>
                    <path d="M4.8,240.2 L400.32,240.2 C402.970967,240.2 405.12,242.349033 405.12,245 L405.12,252.2 C405.12,254.850967 402.970967,257 400.32,257 L4.8,257 C2.1490332,257 1.18709693e-14,254.850967 1.15463195e-14,252.2 L0,245 C-3.24649801e-16,242.349033 2.1490332,240.2 4.8,240.2 Z" id="Rectangle" fill="#9CB4D2"></path>
                    <path d="M168,240.2 L237.12,240.2 L237.12,245 C237.12,247.650967 234.970967,249.8 232.32,249.8 L172.8,249.8 C170.149033,249.8 168,247.650967 168,245 L168,240.2 Z" id="Rectangle" fill="#778DB6"></path>
                </g>
            </g>
        </g>
    </g>
</svg>