<svg width="532" height="463" viewBox="0 0 532 463" fill="none" xmlns="http://www.w3.org/2000/svg">
<g clip-path="url(#clip0)">
<path fill-rule="evenodd" clip-rule="evenodd" d="M247.858 462.068C382.662 462.049 573.564 201.149 523.285 98.1291C473.006 -4.89107 414.835 68.4661 194.405 10.4487C-26.0253 -47.5687 -46.294 157.005 74.0357 223.531C194.365 290.057 113.055 462.087 247.858 462.068Z" fill="#D6E3FE"/>
<path fill-rule="evenodd" clip-rule="evenodd" d="M92.0973 29.4777L223.993 6.22087C233.247 4.58913 242.076 10.756 243.729 20.0064L293.22 297.001C294.876 306.266 288.707 315.119 279.442 316.774C279.429 316.777 279.416 316.779 279.404 316.781L147.414 340.054C138.158 341.687 129.328 335.516 127.678 326.263L78.2793 49.2525C76.627 39.9867 82.799 31.1358 92.0648 29.4834C92.0756 29.4815 92.0864 29.4796 92.0973 29.4777V29.4777Z" fill="#D6E9F4"/>
<path fill-rule="evenodd" clip-rule="evenodd" d="M82.7785 31.1208L214.674 7.864C223.928 6.23225 232.757 12.3992 234.41 21.6495L283.902 298.644C285.557 307.909 279.388 316.762 270.123 318.417C270.11 318.42 270.097 318.422 270.085 318.424L138.095 341.698C128.839 343.33 120.009 337.159 118.359 327.906L68.9606 50.8956C67.3082 41.6298 73.4802 32.7789 82.746 31.1265C82.7568 31.1246 82.7676 31.1227 82.7785 31.1208V31.1208Z" fill="url(#paint0_linear)"/>
<path opacity="0.6" fill-rule="evenodd" clip-rule="evenodd" d="M113.401 42.3998L190.295 28.8413C192.476 28.4567 194.116 26.6382 194.273 24.4293C194.431 22.2205 196.071 20.402 198.252 20.0174L210.429 17.8702C218.077 16.5218 225.365 21.6046 226.709 29.2229L274.282 294.893C275.626 302.511 270.515 309.78 262.868 311.129L142.355 332.379C134.707 333.727 127.419 328.644 126.075 321.026L78.6065 55.3373C77.2632 47.7189 82.3737 40.4499 90.0212 39.1014L102.906 36.8296C105.086 36.445 107.249 37.593 108.153 39.6147C109.057 41.6363 111.22 42.7843 113.401 42.3998Z" fill="white"/>
<path d="M158.446 306.192C169.889 304.174 177.53 293.262 175.512 281.819C173.494 270.376 162.582 262.735 151.139 264.752C139.695 266.77 132.055 277.682 134.072 289.126C136.09 300.569 147.002 308.21 158.446 306.192Z" fill="url(#paint1_linear)"/>
<path d="M147.178 281.83L161.645 289.311" stroke="#F7F9FB" stroke-width="4.20788" stroke-linecap="round"/>
<path d="M159.929 279.581L148.894 291.56" stroke="#F7F9FB" stroke-width="4.20788" stroke-linecap="round"/>
<path d="M238.177 292.133C249.62 290.115 257.261 279.203 255.243 267.76C253.225 256.317 242.313 248.676 230.87 250.694C219.427 252.711 211.786 263.624 213.804 275.067C215.821 286.51 226.734 294.151 238.177 292.133Z" fill="url(#paint2_linear)"/>
<path d="M240.993 265.397C239.93 264.595 238.61 264.284 237.277 264.519C236.28 264.694 235.422 265.167 234.727 265.923C234.376 266.305 234.076 266.749 233.83 267.25C233.428 266.864 232.994 266.549 232.533 266.31C231.622 265.837 230.654 265.687 229.657 265.862C228.324 266.097 227.19 266.842 226.466 267.958C225.75 269.062 225.491 270.442 225.739 271.845C225.994 273.29 226.771 274.516 228.185 275.704C229.45 276.767 231.176 277.769 233.174 278.928C233.856 279.324 234.629 279.773 235.435 280.255C235.648 280.382 235.9 280.428 236.146 280.385C236.392 280.342 236.614 280.212 236.77 280.019C237.362 279.291 237.936 278.605 238.442 277.999C239.922 276.226 241.201 274.695 242.027 273.264C242.949 271.663 243.26 270.245 243.005 268.801C242.758 267.397 242.043 266.189 240.993 265.397Z" fill="#F7F9FB"/>
<path fill-rule="evenodd" clip-rule="evenodd" d="M106.143 99.8191L218.687 79.7843C220.975 79.377 223.16 80.9016 223.568 83.1896L249.379 228.186C249.787 230.474 248.262 232.659 245.974 233.066L133.429 253.101C131.142 253.508 128.957 251.983 128.549 249.695L102.738 104.699C102.33 102.411 103.855 100.226 106.143 99.8191V99.8191Z" fill="white"/>
<ellipse rx="4.67723" ry="19.6529" transform="matrix(0.549206 -0.837014 0.847073 0.5294 151.991 136.246)" fill="url(#paint3_linear)"/>
<ellipse rx="2.51185" ry="15.3049" transform="matrix(0.549206 -0.837014 0.847073 0.5294 155.262 138.12)" fill="url(#paint4_linear)"/>
<ellipse rx="4.73794" ry="19.3965" transform="matrix(0.992007 -0.126181 0.123951 0.992288 198.035 133.367)" fill="url(#paint5_linear)"/>
<ellipse rx="2.54445" ry="15.1052" transform="matrix(0.992007 -0.126181 0.123951 0.992288 198.641 137.039)" fill="url(#paint6_linear)"/>
<path fill-rule="evenodd" clip-rule="evenodd" d="M158.852 175.455C158.852 175.455 148.341 210.608 139.896 207.913C131.451 205.218 145.132 168.356 145.132 168.356L158.852 175.455Z" fill="url(#paint7_linear)"/>
<path fill-rule="evenodd" clip-rule="evenodd" d="M201.741 170.435C201.741 170.435 223.737 199.802 230.733 194.358C237.729 188.914 212.168 159.038 212.168 159.038L201.741 170.435Z" fill="url(#paint8_linear)"/>
<path fill-rule="evenodd" clip-rule="evenodd" d="M191.629 207.149C189.268 207.736 186.801 208.189 184.255 208.513C181.734 208.834 179.256 209.012 176.845 209.037C176.781 211.23 176.414 212.976 175.795 213.651C174.15 215.449 165.754 217.238 164.814 215.857C164.3 215.104 164.513 214.677 164.677 214.349C164.813 214.075 164.915 213.871 164.532 213.605C162.404 212.127 160.487 209.013 158.864 205.47C151.112 201.659 145.678 194.624 144.293 183.538C141.658 162.444 154.684 134.67 174.713 132.123C194.742 129.575 214.19 153.218 216.825 174.313C218.204 185.353 214.705 193.507 208.184 199.137C207.484 203 206.39 206.523 204.683 208.498C204.378 208.851 204.527 209.024 204.726 209.255C204.965 209.531 205.276 209.892 204.964 210.75C204.392 212.323 195.819 212.692 193.783 211.363C193.017 210.863 192.231 209.26 191.629 207.149Z" fill="url(#paint9_linear)"/>
<path d="M164.162 178.908C164.162 178.908 171.688 182.968 182.549 180.561C191.98 178.47 198.4 170.978 198.4 170.978" stroke="#331523" stroke-linecap="round"/>
<ellipse opacity="0.1" rx="11.4061" ry="11.1573" transform="matrix(0.992007 -0.126181 0.123951 0.992288 178.833 163.051)" fill="white"/>
<ellipse opacity="0.1" rx="7.6041" ry="7.43818" transform="matrix(0.992007 -0.126181 0.123951 0.992288 176.848 147.154)" fill="white"/>
<ellipse rx="8.59848" ry="8.41086" transform="matrix(0.992007 -0.126181 0.123951 0.992288 178.964 163.15)" fill="white"/>
<ellipse rx="2.94805" ry="2.88373" transform="matrix(0.992007 -0.126181 0.123951 0.992288 178.959 162.771)" fill="#331523"/>
<ellipse rx="5.41704" ry="5.29884" transform="matrix(0.992007 -0.126181 0.123951 0.992288 176.943 147.162)" fill="white"/>
<ellipse rx="1.85727" ry="1.81675" transform="matrix(0.992007 -0.126181 0.123951 0.992288 176.857 147.48)" fill="#331523"/>
<g filter="url(#filter0_d)">
<path fill-rule="evenodd" clip-rule="evenodd" d="M4.48439 145.931L108.807 99.1929C110.928 98.2428 113.418 99.1918 114.368 101.313L174.582 235.716C175.532 237.837 174.583 240.327 172.462 241.277L68.1394 288.015C66.0186 288.965 63.529 288.016 62.5789 285.895L2.36469 151.491C1.41454 149.37 2.36356 146.881 4.48439 145.931H4.48439Z" fill="white"/>
</g>
<path fill-rule="evenodd" clip-rule="evenodd" d="M52.6271 203.42C52.6271 203.42 57.3425 243.478 69.5979 242.805C81.8532 242.133 72.3003 198.608 72.3003 198.608" fill="url(#paint10_linear)"/>
<path fill-rule="evenodd" clip-rule="evenodd" d="M117.759 171.919C117.759 171.919 145.803 204.2 137.237 213.049C128.67 221.898 101.106 183.452 101.106 183.452" fill="url(#paint11_linear)"/>
<path fill-rule="evenodd" clip-rule="evenodd" d="M83.8271 161.286C83.8271 161.286 93.5917 154.745 91.9697 151.125C90.3477 147.504 83.1171 152.617 83.1171 152.617C83.1171 152.617 86.8727 135.786 77.2832 139.595C67.6936 143.404 64.8997 163.253 64.8997 163.253C64.8997 163.253 63.2222 156.168 59.8141 157.695C56.4059 159.222 61.157 178.295 61.157 178.295L83.8271 161.286Z" fill="url(#paint12_linear)"/>
<path fill-rule="evenodd" clip-rule="evenodd" d="M97.0093 230.061C99.2087 229.535 101.391 228.797 103.53 227.838C105.339 227.028 107.051 226.09 108.659 225.039C110.509 228.13 112.475 230.38 113.836 230.792C117.077 231.773 130.038 224.773 130.038 224.773C130.431 224.25 129.974 223.851 129.482 223.421C128.982 222.985 128.446 222.516 128.731 221.855C132.772 212.454 125.268 188.418 123.935 184.315C123.451 182.599 122.836 180.898 122.086 179.223C113.781 160.686 92.0083 152.396 73.4553 160.708C54.9023 169.02 46.5946 190.786 54.8996 209.323C55.463 210.581 56.0884 211.791 56.7706 212.953C56.6213 212.97 56.5427 212.98 56.5427 212.98C56.5427 212.98 66.9172 229.422 70.6017 233.985C73.0936 237.072 77.6552 241.47 80.3473 243.994C80.5697 244.202 80.8113 244.508 81.0659 244.83C81.7177 245.654 82.4538 246.584 83.1655 246.264C88.7259 243.763 97.4626 239.567 98.2996 237.546C98.6548 236.688 98.6599 235.591 98.0727 233.13C97.9445 232.593 97.5719 231.488 97.0093 230.061Z" fill="url(#paint13_linear)"/>
<circle r="2.17229" transform="matrix(-0.9126 0.408854 0.408854 0.9126 96.2402 174.519)" fill="#331523"/>
<circle r="2.17229" transform="matrix(-0.9126 0.408854 0.408854 0.9126 67.9224 183.036)" fill="#331523"/>
<circle r="6.51688" transform="matrix(-0.9126 0.408854 0.408854 0.9126 84.0727 183.174)" fill="url(#paint14_linear)"/>
<mask id="mask0" mask-type="alpha" maskUnits="userSpaceOnUse" x="75" y="174" width="18" height="18">
<circle r="6.51688" transform="matrix(-0.9126 0.408854 0.408854 0.9126 84.0727 183.174)" fill="white"/>
</mask>
<g mask="url(#mask0)">
<path fill-rule="evenodd" clip-rule="evenodd" d="M90.7251 182.084C90.7251 182.084 89.0449 182.214 88.8882 183.877C88.7315 185.54 90.0656 188.063 90.0656 188.063L91.4468 183.694L90.7251 182.084Z" fill="#4C5F96"/>
<path fill-rule="evenodd" clip-rule="evenodd" d="M80.5162 187.202C80.5162 187.202 81.0416 185.779 82.5937 186.188C84.1458 186.597 86.4435 189.272 86.4435 189.272L79.7051 189.485L80.5162 187.202Z" fill="#4C5F96"/>
</g>
<path d="M80.79 195.169C80.79 195.169 84.244 195.821 88.6575 193.371C92.4903 191.243 94.6014 187.149 94.6014 187.149" stroke="#331523" stroke-linecap="round"/>
<path opacity="0.3" fill-rule="evenodd" clip-rule="evenodd" d="M113.216 221.359C113.216 221.359 108.716 225.603 103.382 227.822C98.0466 230.041 93.5268 230.359 93.5268 230.359L113.216 221.359Z" fill="#1F5967"/>
<path fill-rule="evenodd" clip-rule="evenodd" d="M221.001 306.133C220.991 334.854 245.742 366.555 278.447 366.555C311.152 366.555 327.498 347.205 327.507 318.49C327.509 311.075 318.567 292.689 311.152 292.686C303.851 292.684 297.909 298.51 297.726 305.767L297.721 306.108C297.717 320.038 286.525 331.301 272.77 331.306C259.16 331.31 248.116 313.974 245.356 305.767C242.596 297.56 241.846 292.714 234.431 292.711C227.016 292.709 221.003 298.718 221.001 306.133Z" fill="url(#paint15_linear)"/>
<path fill-rule="evenodd" clip-rule="evenodd" d="M412.206 407.75C409.241 408.001 406.242 408.129 403.212 408.129C395.73 408.129 388.43 407.348 381.389 405.863C380.221 416.528 377.665 425.12 374.502 427.866C367.198 434.207 348.029 440.77 330.529 431.097C315.324 422.692 302.74 342.533 299.701 321.653C298.623 315.62 298.06 309.408 298.06 303.065C298.06 245.039 345.138 198 403.212 198C461.287 198 508.365 245.039 508.365 303.065C508.365 311.725 507.316 320.141 505.339 328.192C502.499 345.546 497.491 374.838 494.304 385.934C491.138 396.958 483.716 413.892 479.296 423.588C477.149 428.296 472.735 431.528 467.586 432.041C453.182 433.478 424.247 435.317 417.282 427.866C414.292 424.666 412.648 417.06 412.206 407.75Z" fill="url(#paint16_linear)"/>
<path d="M387.258 291.078C387.258 291.078 381.981 297.611 370.576 298.963C360.672 300.137 351.069 294.561 351.069 294.561" stroke="#331523" stroke-width="4" stroke-linecap="round"/>
<ellipse opacity="0.2" cx="464.448" cy="292.086" rx="13.9568" ry="5.7012" transform="rotate(83 464.448 292.086)" fill="url(#paint17_linear)"/>
<ellipse opacity="0.2" cx="453.672" cy="316.059" rx="8.31562" ry="3.68647" transform="rotate(83 453.672 316.059)" fill="url(#paint18_linear)"/>
<path fill-rule="evenodd" clip-rule="evenodd" d="M506.598 284.117C506.598 284.117 537.732 391.031 509.954 402.69C482.176 414.35 458.136 293.353 458.136 293.353" fill="url(#paint19_linear)"/>
<ellipse opacity="0.2" cx="401.664" cy="211.094" rx="42.163" ry="12.5513" fill="url(#paint20_linear)"/>
<path d="M352.964 403.86C352.964 403.86 374.216 407.985 396.713 406.411C419.21 404.838 439.681 397.796 439.681 397.796" stroke="#FFAF6C" stroke-width="4" stroke-linecap="round"/>
<rect x="294.224" y="241.255" width="47.5475" height="47.5475" rx="23.7737" stroke="#DC5151" stroke-width="7"/>
<rect x="398.184" y="241.255" width="47.5475" height="47.5475" rx="23.7737" stroke="#DC5151" stroke-width="7"/>
<path d="M339.354 265.029H400.601" stroke="#DC5151" stroke-width="7"/>
<path d="M446.537 265.029H522.29" stroke="#DC5151" stroke-width="7"/>
<path d="M282.135 265.029H306.312" stroke="#DC5151" stroke-width="7"/>
<circle cx="316.84" cy="259.694" r="7.8954" fill="#331523"/>
<circle cx="410.865" cy="259.79" r="7.8954" fill="#331523"/>
</g>
<defs>
<filter id="filter0_d" x="-1.35571" y="93.4725" width="183.658" height="200.262" filterUnits="userSpaceOnUse" color-interpolation-filters="sRGB">
<feFlood flood-opacity="0" result="BackgroundImageFix"/>
<feColorMatrix in="SourceAlpha" type="matrix" values="0 0 0 0 0 0 0 0 0 0 0 0 0 0 0 0 0 0 127 0"/>
<feOffset dx="2"/>
<feGaussianBlur stdDeviation="2"/>
<feColorMatrix type="matrix" values="0 0 0 0 0 0 0 0 0 0 0 0 0 0 0 0 0 0 0.25 0"/>
<feBlend mode="normal" in2="BackgroundImageFix" result="effect1_dropShadow"/>
<feBlend mode="normal" in="SourceGraphic" in2="effect1_dropShadow" result="shape"/>
</filter>
<linearGradient id="paint0_linear" x1="149.042" y1="19.4368" x2="252.675" y2="374.413" gradientUnits="userSpaceOnUse">
<stop stop-color="#51679D"/>
<stop offset="0.840863" stop-color="#BCCFE3"/>
<stop offset="1" stop-color="#D6E9F4"/>
</linearGradient>
<linearGradient id="paint1_linear" x1="138.048" y1="280.246" x2="177.877" y2="313.237" gradientUnits="userSpaceOnUse">
<stop stop-color="#EE9D8A"/>
<stop offset="1" stop-color="#F2607A"/>
</linearGradient>
<linearGradient id="paint2_linear" x1="216.256" y1="256.5" x2="238.177" y2="292.133" gradientUnits="userSpaceOnUse">
<stop stop-color="#3EEFD5"/>
<stop offset="1" stop-color="#0CBABB"/>
</linearGradient>
<linearGradient id="paint3_linear" x1="0" y1="0" x2="0" y2="39.3057" gradientUnits="userSpaceOnUse">
<stop stop-color="#617FE0"/>
<stop offset="1" stop-color="#95AFFF"/>
</linearGradient>
<linearGradient id="paint4_linear" x1="0" y1="0" x2="0" y2="30.6098" gradientUnits="userSpaceOnUse">
<stop stop-color="#5475DE"/>
<stop offset="1" stop-color="#95AFFF"/>
</linearGradient>
<linearGradient id="paint5_linear" x1="0" y1="0" x2="0" y2="38.793" gradientUnits="userSpaceOnUse">
<stop stop-color="#617FE0"/>
<stop offset="1" stop-color="#95AFFF"/>
</linearGradient>
<linearGradient id="paint6_linear" x1="0" y1="0" x2="0" y2="30.2105" gradientUnits="userSpaceOnUse">
<stop stop-color="#5475DE"/>
<stop offset="1" stop-color="#95AFFF"/>
</linearGradient>
<linearGradient id="paint7_linear" x1="158.474" y1="191.242" x2="130.644" y2="221.876" gradientUnits="userSpaceOnUse">
<stop stop-color="#617FE0"/>
<stop offset="1" stop-color="#95AFFF"/>
</linearGradient>
<linearGradient id="paint8_linear" x1="207.544" y1="185.122" x2="244.236" y2="204.269" gradientUnits="userSpaceOnUse">
<stop stop-color="#617FE0"/>
<stop offset="1" stop-color="#95AFFF"/>
</linearGradient>
<linearGradient id="paint9_linear" x1="139.898" y1="136.551" x2="150.324" y2="218.523" gradientUnits="userSpaceOnUse">
<stop stop-color="#617FE0"/>
<stop offset="1" stop-color="#95AFFF"/>
</linearGradient>
<linearGradient id="paint10_linear" x1="45.79" y1="216.193" x2="76.4024" y2="237.768" gradientUnits="userSpaceOnUse">
<stop stop-color="#89F5E5"/>
<stop offset="1" stop-color="#11C0BE"/>
</linearGradient>
<linearGradient id="paint11_linear" x1="104.466" y1="190.934" x2="130.046" y2="229.028" gradientUnits="userSpaceOnUse">
<stop stop-color="#89F5E5"/>
<stop offset="1" stop-color="#11C0BE"/>
</linearGradient>
<linearGradient id="paint12_linear" x1="93.9144" y1="161.042" x2="61.9522" y2="168.65" gradientUnits="userSpaceOnUse">
<stop stop-color="#EE9D8A"/>
<stop offset="1" stop-color="#FB7990"/>
</linearGradient>
<linearGradient id="paint13_linear" x1="137.782" y1="155.16" x2="138.207" y2="235.497" gradientUnits="userSpaceOnUse">
<stop stop-color="#3EEFD5"/>
<stop offset="1" stop-color="#0CBABB"/>
</linearGradient>
<linearGradient id="paint14_linear" x1="-12.6437" y1="-12.1349" x2="-36.9135" y2="26.1863" gradientUnits="userSpaceOnUse">
<stop stop-color="#4C5F96"/>
<stop offset="1" stop-color="#A5F7FF"/>
</linearGradient>
<linearGradient id="paint15_linear" x1="341.939" y1="395.819" x2="277.386" y2="337.084" gradientUnits="userSpaceOnUse">
<stop stop-color="#FFEBB4"/>
<stop offset="1" stop-color="#FFAF6C"/>
</linearGradient>
<linearGradient id="paint16_linear" x1="554.748" y1="457.996" x2="532.171" y2="206.394" gradientUnits="userSpaceOnUse">
<stop stop-color="#FFEBB4"/>
<stop offset="0.509695" stop-color="#FFC585"/>
<stop offset="1" stop-color="#FFAA64"/>
</linearGradient>
<linearGradient id="paint17_linear" x1="450.491" y1="286.385" x2="450.491" y2="297.788" gradientUnits="userSpaceOnUse">
<stop stop-color="#F18E78"/>
<stop offset="1" stop-color="#DF5543"/>
</linearGradient>
<linearGradient id="paint18_linear" x1="445.357" y1="312.373" x2="445.357" y2="319.746" gradientUnits="userSpaceOnUse">
<stop stop-color="#F18E78"/>
<stop offset="1" stop-color="#DF5543"/>
</linearGradient>
<linearGradient id="paint19_linear" x1="481.406" y1="246.361" x2="546.933" y2="325.237" gradientUnits="userSpaceOnUse">
<stop stop-color="#FFC07F"/>
<stop offset="1" stop-color="#FFAF6C"/>
</linearGradient>
<linearGradient id="paint20_linear" x1="359.501" y1="198.543" x2="359.501" y2="223.646" gradientUnits="userSpaceOnUse">
<stop stop-color="#F18E78"/>
<stop offset="1" stop-color="#DF5543"/>
</linearGradient>
<clipPath id="clip0">
<rect width="532" height="463" fill="white"/>
</clipPath>
</defs>
</svg>
