<?xml version="1.0" encoding="UTF-8"?>
<svg width="757px" height="659px" viewBox="0 0 757 659" version="1.1" xmlns="http://www.w3.org/2000/svg" xmlns:xlink="http://www.w3.org/1999/xlink">
    <!-- Generator: Sketch 52.5 (67469) - http://www.bohemiancoding.com/sketch -->
    <title>transitions</title>
    <desc>Created with Sketch.</desc>
    <defs>
        <linearGradient x1="94.1871529%" y1="91.8159572%" x2="11.9016931%" y2="70.4985664%" id="linearGradient-1">
            <stop stop-color="#EE9D8A" offset="0%"></stop>
            <stop stop-color="#FB7990" offset="100%"></stop>
        </linearGradient>
        <linearGradient x1="132.820231%" y1="25.8832429%" x2="88.7307991%" y2="115.451362%" id="linearGradient-2">
            <stop stop-color="#3EEFD5" offset="0%"></stop>
            <stop stop-color="#0CBABB" offset="100%"></stop>
        </linearGradient>
        <linearGradient x1="-47.0073076%" y1="-43.1035043%" x2="-233.214113%" y2="250.910705%" id="linearGradient-3">
            <stop stop-color="#4C5F96" offset="0%"></stop>
            <stop stop-color="#A5F7FF" offset="100%"></stop>
        </linearGradient>
        <ellipse id="path-4" cx="24.752" cy="24.766" rx="24.6183022" ry="24.6182978"></ellipse>
        <linearGradient x1="-30.2261554%" y1="24.7491742%" x2="96.4839786%" y2="124.650095%" id="linearGradient-6">
            <stop stop-color="#0CBABC" offset="0%"></stop>
            <stop stop-color="#3DEDD5" offset="100%"></stop>
        </linearGradient>
        <linearGradient x1="130.226155%" y1="24.7491742%" x2="3.51602138%" y2="124.650095%" id="linearGradient-7">
            <stop stop-color="#0CBABC" offset="0%"></stop>
            <stop stop-color="#3DEDD5" offset="100%"></stop>
        </linearGradient>
    </defs>
    <g id="Page-1" stroke="none" stroke-width="1" fill="none" fill-rule="evenodd">
        <g id="transitions">
            <path d="M352.099692,658.559679 C544.315692,658.532679 816.522692,286.515679 744.830692,139.619679 C673.137692,-7.27644102 590.190692,97.323379 275.879692,14.596479 C-38.4305079,-68.130321 -67.3316079,223.569679 104.246692,318.429679 C275.823692,413.289679 159.883692,658.586679 352.099692,658.559679 Z" id="Path" fill="#D5E5FF"></path>
            <path d="M310.374816,292.901249 C299.554816,237.781249 296.083816,235.260249 290.789816,223.746249 C285.494816,212.232249 273.908816,225.287249 273.908816,225.287249 C273.908816,225.287249 254.997816,273.130249 249.171816,310.565249 C243.345816,348.000249 259.679816,361.294249 288.471816,370.076249 C317.263816,378.858249 316.980816,326.555249 310.374816,292.901249 Z" id="Path" fill="#0EBDBD"></path>
            <path d="M508.656687,292.901249 C519.476687,237.781249 522.947687,235.260249 528.241687,223.746249 C533.535687,212.232249 545.122687,225.287249 545.122687,225.287249 C545.122687,225.287249 564.033687,273.130249 569.859687,310.565249 C575.685687,348.000249 559.351687,361.294249 530.559687,370.076249 C501.767687,378.858249 502.050687,326.555249 508.656687,292.901249 Z" id="Path" fill="#0EBDBD"></path>
            <path d="M444.423,133.919488 C444.423,133.919488 488.189,126.450488 488.189,111.463488 C488.189,96.477488 455.365,102.934488 455.365,102.934488 C455.365,102.934488 494.307,50.712488 455.365,49.032488 C416.423,47.351488 376.135,111.463488 376.135,111.463488 C376.135,111.463488 381.294,84.449488 367.186,84.449488 C353.079,84.449488 340,157.540488 340,157.540488 L444.423,133.919488 Z" id="Path" fill="url(#linearGradient-1)"></path>
            <path d="M385.133,495.654 C393.219,497.116 401.548,497.88 410.056,497.88 C417.543,497.88 424.892,497.288 432.059,496.15 C433.664,509.664 436.966,520.458 441.023,523.98 C450.682,532.366 506.173,528.253 506.173,528.253 C508.335,527.058 507.377,524.976 506.345,522.735 C505.296,520.457 504.172,518.015 506.173,516.174 C534.626,490.004 545.882,395.553 547.622,379.348 C548.603,372.687 549.112,365.873 549.112,358.94 C549.112,282.206 486.854,220 410.056,220 C333.257,220 271,282.206 271,358.94 C271,368.961 272.062,378.734 274.079,388.153 C277.394,410.387 283.952,452.717 288.042,468.213 C291.866,482.701 300.799,504.909 306.182,517.768 C307.272,520.372 305.167,522.921 302.375,524.995 C300.617,526.301 301.383,529.899 303.574,529.918 C324.482,530.094 371.174,529.744 378.029,523.268 C380.579,520.86 382.291,517.084 384.068,507.694 C384.451,505.666 384.869,501.351 385.133,495.654 Z" id="Path" fill="url(#linearGradient-2)"></path>
            <path d="M385.133,390.654 C393.219,392.116 401.548,392.88 410.056,392.88 C417.543,392.88 424.892,392.288 432.059,391.15 C433.664,404.664 436.966,415.458 441.023,418.98 C450.682,427.366 506.173,423.253 506.173,423.253 C508.335,422.058 507.377,419.976 506.345,417.735 C505.296,415.457 504.172,413.015 506.173,411.174 C534.626,385.004 545.882,290.553 547.622,274.348 C548.603,267.687 549.112,260.873 549.112,253.94 C549.112,177.206 486.854,115 410.056,115 C333.257,115 271,177.206 271,253.94 C271,263.961 272.062,273.734 274.079,283.153 C277.394,305.387 283.952,347.717 288.042,363.213 C291.866,377.701 300.799,399.909 306.182,412.768 C307.272,415.372 305.167,417.921 302.375,419.995 C300.617,421.301 301.383,424.899 303.574,424.918 C324.482,425.094 371.174,424.744 378.029,418.268 C380.579,415.86 382.291,412.084 384.068,402.694 C384.451,400.666 384.869,396.351 385.133,390.654 Z" id="Path" fill="url(#linearGradient-2)"></path>
            <ellipse id="Oval" fill="#331523" transform="translate(466.000001, 198.999999) scale(-1, 1) translate(-466.000001, -198.999999) " cx="466.000001" cy="198.999999" rx="9.00000079" ry="8.99999921"></ellipse>
            <ellipse id="Oval" fill="#331523" transform="translate(355.000001, 184.999999) scale(-1, 1) translate(-355.000001, -184.999999) " cx="355.000001" cy="184.999999" rx="9.00000079" ry="8.99999921"></ellipse>
            <ellipse id="Oval" fill="url(#linearGradient-3)" transform="translate(411.618302, 209.618298) scale(-1, 1) translate(-411.618302, -209.618298) " cx="411.618302" cy="209.618298" rx="24.6183022" ry="24.6182978"></ellipse>
            <g id="Clipped" transform="translate(387.000000, 185.000000)">
                <mask id="mask-5" fill="white">
                    <use xlink:href="#path-4"></use>
                </mask>
                <g id="Oval" transform="translate(24.752000, 24.766000) scale(-1, 1) translate(-24.752000, -24.766000) "></g>
                <g id="Group" mask="url(#mask-5)" fill="#4C5F96">
                    <g transform="translate(-1.000000, 30.000000)" id="Path">
                        <path d="M50.37,1.28 C50.37,1.28 44.377,-0.867 41.268,4.625 C38.159,10.117 38.861,20.876 38.861,20.876 L50.37,7.948 L50.37,1.28 Z"></path>
                        <path d="M7.27,3.159 C7.27,3.159 11.279,-0.935 15.999,2.871 C20.718,6.678 24.508,19.448 24.508,19.448 L0.948,9.777 L7.27,3.159 Z"></path>
                    </g>
                </g>
            </g>
            <path d="M404.347,256.745 C384.492,254.949 373,243.334 373,243.334 C373,243.334 391.434,252.303 412.607,251.327 C433.781,250.351 454.324,240 454.324,240 C454.324,240 424.202,258.541 404.347,256.745 Z" id="Path" fill="#331523"></path>
            <path d="M454.258,240 C454.258,240 449.22,263.363 443.589,264.847 C437.958,266.331 434,247.889 434,247.889 C434,247.889 436.362,247.202 442.601,244.933 C448.841,242.664 454.258,240 454.258,240 Z" id="Path" fill="#FFFFFF"></path>
            <path d="M373,243 C373,243 375.294,260.998 379.713,261.147 C384.132,261.296 390.482,249.132 390.482,249.132 C390.482,249.132 387.201,248.52 382.444,246.851 C377.687,245.183 373,243 373,243 Z" id="Path" fill="#FFFFFF"></path>
            <path d="M452.779,386 C452.779,386 430.712,393.684 408.893,393.094 C387.074,392.503 371,386.62 371,386.62 L452.779,386 Z" id="Path" fill="#1F5967" opacity="0.3"></path>
            <g id="Group-2" transform="translate(403.839096, 432.646473) rotate(10.000000) translate(-403.839096, -432.646473) translate(180.839096, 304.646473)">
                <path d="M409.505,16.3581 L438.365,180.033 C438.71,181.991 437.403,183.858 435.445,184.204 L33.742,255.035 C31.784,255.38 29.916,254.072 29.571,252.114 L0.7108,88.439 C0.3656,86.481 1.673,84.614 3.631,84.269 L405.334,13.4379 C407.292,13.0926 409.159,14.4 409.505,16.3581 Z" id="Path" fill="#D6E9F4"></path>
                <path d="M416.406,3.6669 L445.266,167.342 C445.611,169.3 444.304,171.167 442.346,171.512 L40.643,242.343 C38.685,242.689 36.817,241.381 36.472,239.423 L7.6119,75.748 C7.2666,73.79 8.574,71.923 10.532,71.578 L412.235,0.7467 C414.193,0.4015 416.06,1.7089 416.406,3.6669 Z" id="Path" fill="#FFFFFF"></path>
                <path d="M142.761,178.806 L137.947,151.507 C137.732,150.288 136.571,149.475 135.352,149.69 L108.053,154.503 C106.835,154.718 106.022,155.88 106.236,157.098 L111.05,184.397 C111.265,185.615 112.427,186.429 113.645,186.214 L140.944,181.401 C142.162,181.186 142.976,180.024 142.761,178.806 Z" id="Path" fill="#D5E5FF" opacity="0.5"></path>
                <path d="M136.969,174.75 L132.155,147.451 C131.94,146.233 130.778,145.419 129.56,145.634 L102.261,150.447 C101.043,150.662 100.229,151.824 100.444,153.042 L105.258,180.341 C105.473,181.56 106.634,182.373 107.853,182.158 L135.152,177.345 C136.37,177.13 137.183,175.968 136.969,174.75 Z" id="Path" fill="#3884FF"></path>
                <path d="M162.302,111.146 C151.144,107.085 138.806,112.838 134.745,123.996" id="Path" stroke="#51679D" stroke-width="1.5" stroke-linecap="round"></path>
                <polyline id="Path" stroke="#51679D" stroke-width="1.5" stroke-linecap="round" stroke-linejoin="round" points="159.068 103.949 162.449 111.2 155.199 114.581"></polyline>
                <path d="M254.182,73.621 C243.024,69.56 230.686,75.313 226.625,86.471" id="Path" stroke="#51679D" stroke-width="1.5" stroke-linecap="round"></path>
                <polyline id="Path" stroke="#51679D" stroke-width="1.5" stroke-linecap="round" stroke-linejoin="round" points="250.948 66.424 254.329 73.675 247.079 77.056"></polyline>
                <path d="M238.684,160.755 L231.463,119.806 C231.141,117.979 229.398,116.758 227.571,117.081 L186.623,124.301 C184.795,124.623 183.575,126.366 183.897,128.193 L191.117,169.142 C191.44,170.969 193.182,172.189 195.01,171.867 L235.958,164.647 C237.786,164.325 239.006,162.582 238.684,160.755 Z" id="Path" fill="#D5E5FF" opacity="0.5"></path>
                <path d="M232.891,156.699 L225.671,115.75 C225.349,113.923 223.606,112.703 221.779,113.025 L180.83,120.245 C179.003,120.567 177.783,122.31 178.105,124.138 L185.325,165.086 C185.647,166.913 187.39,168.134 189.217,167.811 L230.166,160.591 C231.993,160.269 233.214,158.526 232.891,156.699 Z" id="Path" fill="#3884FF"></path>
                <path d="M358.834,137.863 L347.943,76.096 C347.459,73.354 344.845,71.524 342.104,72.007 L280.337,82.899 C277.596,83.382 275.765,85.996 276.249,88.737 L287.14,150.504 C287.623,153.246 290.237,155.076 292.978,154.593 L354.746,143.701 C357.487,143.218 359.317,140.604 358.834,137.863 Z" id="Path" fill="#D5E5FF" opacity="0.5"></path>
                <path d="M353.042,133.807 L342.15,72.04 C341.667,69.299 339.053,67.468 336.312,67.952 L274.545,78.843 C271.803,79.326 269.973,81.94 270.456,84.681 L281.348,146.449 C281.831,149.19 284.445,151.02 287.186,150.537 L348.953,139.646 C351.695,139.162 353.525,136.548 353.042,133.807 Z" id="Path" fill="#3884FF"></path>
            </g>
            <path d="M254.162305,287 C254.162305,287 335.245305,308.647 332.056305,340.421 C328.866305,372.196 295.551305,373.282 284.254305,371.538 C276.051305,370.271 258.773305,366.293 250.833305,344.526 C242.893305,322.758 254.162305,287 254.162305,287 Z" id="Path" fill="url(#linearGradient-6)"></path>
            <path d="M563.98566,287 C563.98566,287 482.90266,308.647 486.09166,340.421 C489.28166,372.196 522.59666,373.282 533.89366,371.538 C542.09666,370.271 559.37466,366.293 567.31466,344.526 C575.25466,322.758 563.98566,287 563.98566,287 Z" id="Path" fill="url(#linearGradient-7)"></path>
        </g>
    </g>
</svg>